<?xml version="1.0" encoding="utf-8"?>
<!-- Generator: Adobe Illustrator 26.0.2, SVG Export Plug-In . SVG Version: 6.00 Build 0)  -->
<svg version="1.1" id="Layer_1" xmlns="http://www.w3.org/2000/svg" xmlns:xlink="http://www.w3.org/1999/xlink" x="0px" y="0px"
	 viewBox="0 0 400 200" style="enable-background:new 0 0 400 200;" xml:space="preserve">
<style type="text/css">
	.st0{fill:#A9714B;}
	.st1{fill:#053C5E;}
	.st2{fill:#86BDBF;}
	.st3{fill:#30302F;}
</style>
<g>
	<g>
		<path class="st0" d="M9.5,166.4v7.3H7.7v-12.7h1.7l0,2c0.5-0.8,1.1-1.4,1.8-1.7c0.7-0.4,1.5-0.5,2.3-0.5c0.9,0,1.7,0.2,2.3,0.7
			c0.6,0.5,1,1.1,1.2,1.9c0.4-0.9,1-1.5,1.8-2c0.8-0.4,1.6-0.7,2.5-0.7c0.7,0,1.3,0.1,1.8,0.4c0.5,0.2,0.9,0.5,1.2,0.9
			c0.3,0.4,0.5,0.8,0.7,1.4s0.3,1.1,0.3,1.5c0,0.5,0.1,1,0.1,1.6v7.2h-1.8v-7.6c0-0.6,0-1.2-0.1-1.7c-0.1-0.5-0.2-0.9-0.4-1.3
			c-0.2-0.4-0.4-0.7-0.8-0.9c-0.3-0.2-0.7-0.3-1.2-0.3c-0.7,0-1.3,0.2-1.9,0.6c-0.6,0.4-1,1-1.3,1.6c-0.3,0.7-0.4,1.3-0.4,2.1v7.4
			h-1.8v-7.6c0-1.3-0.2-2.4-0.6-3.1c-0.4-0.7-1-1.1-1.9-1.1c-0.7,0-1.4,0.2-1.9,0.7c-0.6,0.4-1,1-1.3,1.7
			C9.6,164.9,9.5,165.6,9.5,166.4z"/>
		<path class="st0" d="M32.1,172.8l-4.9-11.9h1.8l0.7,1.8c0.5,1.2,1,2.7,1.7,4.4c0.7,1.7,1.2,3,1.5,3.9c0.7-1.9,2-5.2,3.9-10.1h1.7
			c-0.6,1.5-1.4,3.5-2.5,6.2c-1.1,2.7-1.8,4.4-2.1,5.4c-0.3,0.8-0.6,1.4-0.8,1.8c-0.2,0.5-0.5,0.9-0.8,1.4c-0.3,0.5-0.6,0.8-0.9,1.1
			c-0.3,0.3-0.7,0.5-1.2,0.6c-0.4,0.2-1,0.2-1.5,0.2c-0.4,0-0.9-0.1-1.3-0.2l0.2-1.4c0.4,0.1,0.7,0.1,1.1,0.1c1.4,0,2.4-0.8,2.9-2.5
			L32.1,172.8z"/>
	</g>
	<g>
		<path class="st1" d="M76.7,174.5h-8.5v-3.4c-0.8,0.6-1.6,1.1-2.4,1.6c-0.8,0.5-1.7,0.9-2.7,1.3c-1,0.4-2,0.6-3,0.8
			c-1.1,0.2-2.3,0.3-3.5,0.3c-1.7,0-3.3-0.2-4.9-0.7c-1.6-0.5-3-1.3-4.3-2.3c-1.2-1-2.2-2.3-3-3.9c-0.7-1.6-1.1-3.4-1.1-5.5
			c0-2,0.4-3.8,1.1-5.3c0.7-1.5,1.8-2.8,3-3.8c1.3-1,2.8-1.7,4.5-2.2c1.7-0.5,3.6-0.7,5.5-0.7c1,0,2,0.1,2.9,0.2
			c1,0.2,1.9,0.4,2.8,0.6c0.9,0.3,1.8,0.6,2.6,1c0.8,0.4,1.6,0.8,2.4,1.2v-9.9h-5.5V141h8.6v30.7h5.5V174.5z M57.2,172.5
			c1.2,0,2.3-0.1,3.4-0.4c1.1-0.3,2.1-0.7,3-1.1c0.9-0.5,1.8-1,2.5-1.5c0.8-0.6,1.4-1.1,2-1.6v-11.1c-0.6-0.5-1.3-0.9-2.1-1.3
			c-0.8-0.4-1.6-0.8-2.5-1.1c-0.9-0.3-1.9-0.6-2.9-0.8c-1-0.2-2.1-0.3-3.2-0.3c-1.7,0-3.2,0.2-4.6,0.6c-1.4,0.4-2.6,1-3.5,1.8
			c-1,0.8-1.7,1.8-2.3,3c-0.5,1.2-0.8,2.5-0.8,4c0,3.2,0.9,5.6,2.8,7.3C50.9,171.7,53.6,172.5,57.2,172.5z"/>
		<path class="st1" d="M78.5,151.3H87v20.5h5.5v2.8h-14v-2.8H84V154h-5.5V151.3z M82.4,144.8c0-0.4,0.1-0.7,0.2-1.1
			c0.1-0.3,0.3-0.6,0.6-0.9s0.5-0.4,0.9-0.6c0.3-0.1,0.7-0.2,1-0.2c0.4,0,0.7,0.1,1.1,0.2c0.3,0.1,0.6,0.3,0.9,0.6
			c0.3,0.2,0.5,0.5,0.6,0.9c0.1,0.3,0.2,0.7,0.2,1.1c0,0.4-0.1,0.7-0.2,1.1c-0.1,0.3-0.3,0.6-0.6,0.9c-0.3,0.2-0.5,0.4-0.9,0.6
			c-0.3,0.1-0.7,0.2-1.1,0.2c-0.4,0-0.7-0.1-1-0.2c-0.3-0.1-0.6-0.3-0.9-0.6s-0.4-0.5-0.6-0.9C82.5,145.5,82.4,145.2,82.4,144.8z"/>
		<path class="st1" d="M120.4,160.3v-1.1c0-1-0.3-1.9-0.9-2.6c-0.6-0.7-1.4-1.3-2.4-1.8c-1-0.5-2-0.8-3.2-1
			c-1.2-0.2-2.3-0.3-3.4-0.3c-1.8,0-3.5,0.2-4.9,0.7c-1.4,0.4-2.7,1.1-3.7,1.9c-1,0.8-1.8,1.8-2.3,3c-0.5,1.2-0.8,2.5-0.8,4
			c0,1.5,0.3,2.8,0.8,4c0.5,1.2,1.3,2.2,2.3,3c1,0.8,2.2,1.5,3.6,1.9c1.4,0.4,3,0.7,4.8,0.7c1.5,0,2.9-0.1,4-0.4
			c1.1-0.3,2.1-0.6,2.9-1.1c0.8-0.4,1.4-0.9,1.9-1.5c0.5-0.6,0.9-1.1,1.1-1.7h3.1c-0.9,2.4-2.5,4.2-4.7,5.5
			c-2.2,1.2-5.1,1.9-8.5,1.9c-2.1,0-4-0.3-5.8-0.8c-1.8-0.5-3.3-1.3-4.6-2.3c-1.3-1-2.3-2.3-3-3.8c-0.7-1.5-1.1-3.3-1.1-5.2
			c0-2,0.4-3.7,1.1-5.3c0.8-1.5,1.8-2.8,3.1-3.9c1.3-1,2.9-1.8,4.7-2.4c1.8-0.5,3.7-0.8,5.7-0.8c1.2,0,2.3,0.1,3.3,0.2
			c1,0.2,2,0.4,2.8,0.7c0.9,0.3,1.6,0.6,2.3,1c0.7,0.4,1.2,0.7,1.7,1.1v-2.5h2.7v9.1H120.4z"/>
		<path class="st1" d="M125.8,151.3h6.3v-8h3v8h16.3v2.7h-16.3v13.5c0,1,0.2,1.8,0.5,2.4c0.3,0.6,0.8,1.1,1.5,1.5
			c0.6,0.4,1.4,0.6,2.3,0.8c0.9,0.1,1.9,0.2,2.9,0.2c1.1,0,2-0.1,2.9-0.2c0.9-0.1,1.7-0.3,2.4-0.5c0.7-0.2,1.4-0.4,2-0.7
			c0.6-0.3,1.1-0.5,1.6-0.8l1.5,2.4c-0.6,0.3-1.3,0.7-2,1c-0.8,0.3-1.6,0.6-2.4,0.8c-0.9,0.2-1.8,0.4-2.8,0.5c-1,0.1-2,0.2-3,0.2
			c-1.6,0-3-0.1-4.2-0.4c-1.3-0.3-2.3-0.7-3.2-1.3c-0.9-0.6-1.6-1.4-2.1-2.3c-0.5-1-0.7-2.1-0.7-3.5V154h-6.3V151.3z"/>
		<path class="st1" d="M155.2,151.3h8.5v20.5h5.5v2.8h-14v-2.8h5.5V154h-5.5V151.3z M159.2,144.8c0-0.4,0.1-0.7,0.2-1.1
			c0.1-0.3,0.3-0.6,0.6-0.9s0.5-0.4,0.9-0.6c0.3-0.1,0.7-0.2,1-0.2c0.4,0,0.7,0.1,1.1,0.2c0.3,0.1,0.6,0.3,0.9,0.6
			c0.3,0.2,0.5,0.5,0.6,0.9c0.1,0.3,0.2,0.7,0.2,1.1c0,0.4-0.1,0.7-0.2,1.1c-0.1,0.3-0.3,0.6-0.6,0.9c-0.3,0.2-0.5,0.4-0.9,0.6
			c-0.3,0.1-0.7,0.2-1.1,0.2c-0.4,0-0.7-0.1-1-0.2c-0.3-0.1-0.6-0.3-0.9-0.6s-0.4-0.5-0.6-0.9C159.3,145.5,159.2,145.2,159.2,144.8z
			"/>
		<path class="st1" d="M202.3,162.9c0,2.1-0.4,4-1.1,5.5c-0.8,1.5-1.8,2.8-3.1,3.8c-1.3,1-2.9,1.7-4.7,2.2c-1.8,0.5-3.8,0.7-5.9,0.7
			c-2.1,0-4.1-0.2-5.9-0.7c-1.8-0.5-3.4-1.2-4.7-2.2c-1.3-1-2.4-2.3-3.2-3.8c-0.8-1.5-1.1-3.4-1.1-5.5c0-2.1,0.4-3.9,1.2-5.5
			c0.8-1.6,1.8-2.8,3.2-3.8c1.3-1,2.9-1.7,4.8-2.2c1.8-0.5,3.8-0.7,5.9-0.7c2.1,0,4.1,0.2,5.9,0.7c1.8,0.5,3.4,1.2,4.7,2.2
			c1.3,1,2.4,2.3,3.1,3.8C201.9,158.9,202.3,160.8,202.3,162.9z M199.3,162.9c0-3.1-1-5.5-3-7.2c-2-1.7-5-2.5-8.9-2.5
			c-3.9,0-6.9,0.8-8.9,2.5c-2,1.7-3,4.1-3,7.2c0,3.1,1,5.5,3,7.2c2,1.6,5,2.5,8.9,2.5c3.9,0,6.9-0.8,8.9-2.5
			C198.3,168.4,199.3,166,199.3,162.9z"/>
		<path class="st1" d="M205.8,151.3h8.5v4.4c0.8-0.7,1.6-1.4,2.6-2c0.9-0.6,2-1.2,3-1.6c1.1-0.5,2.2-0.8,3.4-1.1
			c1.2-0.3,2.4-0.4,3.7-0.4c1.5,0,2.8,0.2,4,0.6c1.1,0.4,2.1,0.9,2.8,1.6c0.7,0.7,1.3,1.5,1.7,2.5c0.4,1,0.6,2.1,0.6,3.4v13.2h5.5
			v2.8h-14v-2.8h5.5v-12.3c0-1.2-0.2-2.3-0.5-3.1c-0.3-0.8-0.8-1.4-1.4-1.9c-0.6-0.5-1.3-0.8-2.1-1c-0.8-0.2-1.8-0.3-2.8-0.3
			c-1.2,0-2.4,0.2-3.6,0.5c-1.2,0.3-2.3,0.7-3.3,1.2s-2,1-2.9,1.6c-0.9,0.6-1.6,1.2-2.2,1.7v13.5h5.5v2.8h-14v-2.8h5.5V154h-5.5
			V151.3z"/>
		<path class="st1" d="M266.9,171.8c-0.7,0.4-1.6,0.8-2.5,1.2c-0.9,0.4-1.9,0.8-2.9,1.1c-1.1,0.3-2.2,0.6-3.4,0.8
			c-1.2,0.2-2.4,0.3-3.7,0.3c-1.5,0-2.8-0.1-4-0.4c-1.2-0.3-2.2-0.7-3-1.3c-0.8-0.6-1.5-1.3-1.9-2.1c-0.5-0.9-0.7-1.8-0.7-3
			c0-1.7,0.6-3.2,1.7-4.3c1.1-1.1,2.7-2,4.6-2.6c2-0.7,4.3-1.1,7-1.5c2.7-0.3,5.6-0.5,8.8-0.7v-1.1c0-0.9-0.2-1.6-0.7-2.2
			c-0.5-0.6-1.1-1.1-1.9-1.5c-0.8-0.4-1.7-0.7-2.8-0.9c-1-0.2-2.2-0.3-3.3-0.3c-1.4,0-2.6,0.1-3.6,0.3c-1,0.2-1.9,0.4-2.6,0.8
			c-0.7,0.3-1.3,0.7-1.7,1.2c-0.4,0.5-0.7,1-0.9,1.6l-3.1-0.7c0.5-1.8,1.8-3.2,3.7-4.2c2-1,4.6-1.5,8-1.5c1.7,0,3.3,0.1,4.7,0.4
			c1.4,0.3,2.7,0.8,3.7,1.4c1,0.6,1.9,1.5,2.5,2.5c0.6,1,0.9,2.2,0.9,3.7v13.1h5.8v2.8h-8.8V171.8z M266.9,161.8
			c-3.6,0.1-6.6,0.4-9,0.7c-2.4,0.3-4.4,0.8-5.9,1.3c-1.5,0.5-2.6,1.2-3.2,1.9c-0.7,0.7-1,1.5-1,2.5c0,1.4,0.6,2.5,1.9,3.3
			c1.2,0.7,3.1,1.1,5.5,1.1c1,0,2.1-0.1,3.3-0.3c1.2-0.2,2.3-0.5,3.4-0.9c1.1-0.3,2.1-0.7,3-1.2s1.6-0.9,2.1-1.3V161.8z"/>
		<path class="st1" d="M277.4,151.3h8.5v4.9c0.7-0.8,1.4-1.5,2.1-2.2c0.8-0.7,1.6-1.3,2.5-1.8c0.9-0.5,1.8-0.9,2.9-1.2
			c1-0.3,2.1-0.4,3.3-0.4c0.6,0,1.1,0,1.6,0.1c0.5,0.1,1,0.2,1.3,0.3c0.4,0.1,0.7,0.2,1,0.3c0.3,0.1,0.4,0.2,0.5,0.2l-1.1,2.8
			c-0.4-0.2-0.9-0.4-1.6-0.7c-0.6-0.2-1.5-0.3-2.4-0.3c-1.2,0-2.4,0.2-3.4,0.6c-1,0.4-2,0.9-2.8,1.4c-0.8,0.6-1.6,1.2-2.2,1.9
			c-0.7,0.7-1.2,1.3-1.7,1.9v12.5h6v2.8h-14.5v-2.8h5.5V154h-5.5V151.3z"/>
		<path class="st1" d="M335.4,154h-4.6l-9,17.7l-0.6,1c-0.6,1.2-1.2,2.3-1.7,3.4c-0.5,1-1.1,2-1.6,2.9c-0.6,0.9-1.1,1.6-1.8,2.3
			c-0.6,0.7-1.3,1.3-2.1,1.8c-0.8,0.5-1.6,0.8-2.5,1.1c-0.9,0.3-2,0.4-3.2,0.4c-1,0-2-0.1-3.1-0.4c-1.1-0.3-2-0.7-2.8-1.2l1.3-2.6
			c0.2,0.1,0.5,0.3,0.8,0.5c0.3,0.2,0.6,0.3,1,0.5c0.4,0.2,0.8,0.3,1.3,0.4c0.5,0.1,1,0.2,1.5,0.2c1.2,0,2.2-0.2,3-0.5
			c0.9-0.3,1.6-0.8,2.3-1.4c0.7-0.6,1.3-1.4,1.9-2.3c0.6-0.9,1.1-1.9,1.7-3L306.8,154h-4.5v-2.7h12v2.7h-4l8.5,17.5l8.6-17.5h-4.1
			v-2.7h12V154z"/>
	</g>
	<g>
		<path class="st0" d="M343.2,171.8c-1.4,1.2-2.9,1.7-4.5,1.7c-1.1,0-1.9-0.3-2.7-0.9c-0.7-0.6-1.1-1.4-1.1-2.5
			c0-0.4,0.1-0.9,0.2-1.2c0.1-0.4,0.3-0.7,0.5-0.9c0.2-0.3,0.5-0.5,0.9-0.7c0.4-0.2,0.7-0.4,1-0.5c0.3-0.1,0.7-0.2,1.3-0.4
			c0.6-0.1,1.1-0.2,1.4-0.3c0.4-0.1,0.9-0.1,1.6-0.3l1.2-0.2v-0.5c0-1.4-0.2-2.3-0.7-2.9c-0.5-0.5-1.2-0.8-2.3-0.8
			c-0.7,0-1.4,0.1-2,0.4c-0.6,0.3-1.1,0.7-1.6,1.2c0,0-0.4-0.3-1.1-1c1-1.3,2.6-1.9,4.7-1.9c3.1,0,4.7,1.5,4.7,4.6v8.4h-1.5
			L343.2,171.8z M343.1,167l-1.2,0.2c-0.7,0.1-1.2,0.2-1.6,0.3c-0.4,0.1-0.8,0.2-1.3,0.3c-0.4,0.1-0.8,0.2-1.1,0.4
			c-0.3,0.1-0.5,0.3-0.7,0.5c-0.2,0.2-0.4,0.4-0.5,0.6c-0.1,0.2-0.1,0.5-0.1,0.8c0,1.6,0.8,2.4,2.4,2.4c1.3,0,2.7-0.6,4.1-1.8V167z"
			/>
		<path class="st0" d="M349.8,162.6c0.8-1.5,2.1-2.3,3.9-2.3c0.8,0,1.6,0.2,2.2,0.5c0.6,0.3,1.2,0.8,1.5,1.4
			c0.4,0.6,0.7,1.3,0.9,2.1c0.2,0.8,0.3,1.6,0.3,2.6c0,1.3-0.2,2.4-0.5,3.4c-0.3,1-0.9,1.8-1.6,2.4c-0.7,0.6-1.6,0.9-2.7,0.9
			c-0.9,0-1.6-0.2-2.3-0.6c-0.7-0.4-1.2-0.9-1.5-1.6v1.7v4.6h-1.8v-17.1h1.5L349.8,162.6z M355.9,163c-0.6-1-1.4-1.4-2.4-1.4
			c-0.6,0-1.1,0.1-1.6,0.3c-0.4,0.2-0.8,0.4-1,0.8c-0.3,0.3-0.5,0.7-0.6,1.2s-0.2,0.9-0.3,1.4c0,0.5-0.1,1-0.1,1.6
			c0,3.6,1.2,5.5,3.6,5.5c1,0,1.8-0.5,2.4-1.4c0.6-1,0.9-2.3,0.9-4C356.8,165.2,356.5,163.9,355.9,163z"/>
		<path class="st0" d="M361.4,157.8v-2.2h1.8v2.2H361.4z M361.4,173.2v-12.7h1.8v12.7H361.4z"/>
	</g>
</g>
<g>
	<path class="st2" d="M200.4,60.8c-1.5,0.4-2.9,0.9-4,1.5l24.6-44c3.1,1.7,6,3.7,8.7,5.9L200.4,60.8z M180.7,10.9
		c-3.5,0.5-7,1.3-10.3,2.4L185,58.7c1,0.3,1.9,0.6,2.8,1L180.7,10.9z M214.8,15.3c-3.2-1.4-6.6-2.5-10.1-3.3l-12,50.1
		c0.6,0.4,1.2,0.8,1.6,1.2L214.8,15.3z M198,10.7c-2.3-0.3-4.6-0.5-6.8-0.5c-1.2,0-2.4,0-3.6,0l1.9,50c0.8,0.3,1.5,0.7,2.2,1.1
		L198,10.7z M164,15.8c-3.2,1.4-6.3,3.1-9.2,5.1l24.2,36.3c1.4,0.3,2.7,0.6,4,0.9L164,15.8z M173.8,135.4c3.4,0.9,6.9,1.5,10.4,1.8
		l1.8-20.1l-7-1.5L173.8,135.4z M137.5,37.7c-2,2.9-3.8,6-5.3,9.2l24.2,11.3c2.8-0.9,5.6-1.4,8.3-1.7L137.5,37.7z M126.4,70.4
		c0,0.8-0.1,1.5-0.1,2.3c-0.1,2.7,0.1,5.5,0.4,8.2l6.6-0.7c2.4-3.1,4.9-6.2,7.1-9L126.4,70.4z M147.8,62.1c1-0.6,2-1.1,3-1.6
		l-21.1-7.2c-1.1,3.3-2,6.8-2.6,10.3l17.1,2.8c1.4-1.8,2.6-3.2,3.4-4.1L147.8,62.1z M175.7,56.7l-26.4-31.7
		c-2.7,2.2-5.2,4.7-7.5,7.4l27.8,24C171.6,56.3,173.7,56.5,175.7,56.7 M245.3,67L245.3,67l0,0.8l0.2-0.3l0.4,0.3l-0.5,0.9l0.1,0.6
		l0.1-0.2l0.4,0.3l-0.2,0.4l7.5-0.6c-0.3-3.5-0.8-7-1.6-10.4l-16.1,3.9c3.1,1.1,6.2,2.4,9.2,4.1L245.3,67z M246.4,74.9l0.1,0.5
		l0.2,0.1l-0.1,0.2l0.2,1.3l0.1,0.1l-0.1,0.1l0.2,1.7l4.2,0l0.5,3l-1.8,3l2.8,0.5c0.5-2.5,0.8-5,0.9-7.5c0.1-1,0.1-2,0.1-2.9
		L246.4,74.9z M249.8,52.1c-1.2-3.3-2.7-6.5-4.4-9.6l-29.3,16.6c3.5,0.1,7.2,0.5,11,1.3L249.8,52.1z M241.7,36.8
		c-2-2.8-4.3-5.5-6.8-8L203.8,60c2.1-0.4,4.3-0.7,6.7-0.8L241.7,36.8z M129.7,94.3c2.5-0.7,4.8-1.1,7-1.5c-2.2,0.3-4.6,0.7-7,1.3
		C129.6,94.2,129.6,94.2,129.7,94.3 M191,137.5c3.5-0.1,7-0.4,10.5-1l-3-16.6l-7.8-1.7L191,137.5z M164.8,116.7l-7.1,12.1
		c3,1.8,6.3,3.3,9.6,4.6l5.1-13.4c-0.2,0-0.4,0-0.7,0C168,120.1,165.9,118.3,164.8,116.7 M208.2,134.9c3.4-1,6.7-2.3,9.9-3.9
		l-3.8-7.6l-10.2-2.3L208.2,134.9z M222.4,125.2l1.6,2.5c3-1.9,5.8-4,8.4-6.4l-2.8-3.1l-4.6,7.5L222.4,125.2z M148.1,114.1l-4,3.9
		c2.4,2.5,5.1,4.9,7.9,7l8.2-11C157.2,114,152.9,114,148.1,114.1 M247,102.1c1.6-3.2,2.9-6.5,3.9-9.8l-4.7-1.4l-5.1,8.4L247,102.1z
		 M237.2,116.4c2.3-2.6,4.5-5.4,6.4-8.4l-5.7-3.6l-5,8.2L237.2,116.4z"/>
	<path class="st3" d="M251.1,78.9l-4.2,0l-0.2,0l0.2-0.3l-0.4-0.3l-24.6,38.4l-0.1,0.2l0.1,0.2l0,0l24.7-38.1l0.1,0.9l-0.1-0.1
		l-24.8,38.4l-0.2,0.3l0.1,0.1l0-0.1l25-38.1l0.1,1l-0.2-0.1l-25,37.6l-0.5,0.7l-0.3-0.1l0-0.2l-49.5-9.7c2.3-0.3,47.7,8.2,49.4,9.3
		l0.4-0.4c-0.9-0.9-45.6-9.4-49.6-9.4c1.2-0.4,9.2,0.5,24.7,3.4c12.9,2.4,24.2,4.9,24.9,5.6l0.2-0.4c-1.7-1.7-43.1-9.4-49.2-9.2
		c-0.1,0-0.3,0-0.4,0c0.3-0.1,0.7-0.2,1.5-0.2c9.4-0.3,45.8,6.8,47.8,8.8l0.4-0.4c-2.3-2.3-39.7-9.2-48.2-9c-0.5,0-0.9,0.1-1.2,0.1
		c0.5-0.2,1.2-0.3,2.6-0.3c11.1-0.4,44,6.2,46.5,8.7l0.4-0.4c-3-2.9-36.3-9.2-46.9-8.8c-1,0-1.7,0.1-2.3,0.3
		c0.7-0.3,1.9-0.5,3.9-0.6c12.7-0.4,42,5.6,45.1,8.7l0.4-0.4c-3.4-3.4-33.6-9.2-45.5-8.8c-1.5,0.1-2.7,0.2-3.5,0.4
		c1-0.4,2.6-0.7,5.2-0.8c12.9-0.4,39.7,4.9,43.5,8.7l0.4-0.4c-3.9-3.8-31-9.3-43.9-8.8c-2.1,0.1-3.7,0.3-4.9,0.7
		c1.4-0.6,3.7-1,6.7-1.1c13.4-0.5,37.7,4.6,41.9,8.8l0.3-0.3l0,0c0,0,0,0,0,0c-4.4-4.2-28.8-9.4-42.3-8.9c-2.7,0.1-4.8,0.4-6.3,0.9
		c1.8-0.8,4.5-1.3,8.1-1.4c13.8-0.5,35.7,4.4,40.3,8.9l0.2-0.2l0.1-0.1c0,0-0.1-0.1-0.1-0.1c-4.9-4.6-26.7-9.4-40.6-9
		c-3.3,0.1-5.9,0.5-7.7,1.2c2.1-1,5.3-1.6,9.4-1.8c13.9-0.5,33.8,4.2,38.7,9.1l0.1-0.1l0.2-0.2c-0.1-0.1-0.1-0.1-0.2-0.2
		c-5.4-4.9-25.1-9.5-38.9-9.1c-2.9,0.1-6.5,0.5-9.1,1.6c2.4-1.3,6.1-2,10.8-2.2c13.8-0.5,31.9,4.1,37.3,9.3l0.1-0.1l0.3-0.3l0.1,0.2
		l23.7-38.3l0.3-0.5l-0.4-0.3l0,0l-23.7,38.8c-0.1-0.1-0.2-0.2-0.2-0.2c-5.7-5.2-23.7-9.7-37.4-9.2c-3.3,0.1-7.3,0.6-10.4,1.9
		c2.7-1.5,6.8-2.3,11.9-2.5c13.5-0.5,30.2,4,35.9,9.5c0,0,0,0,0,0l0.4-0.4c-0.1-0.1-0.2-0.2-0.4-0.4c-6.1-5.5-22.6-9.8-35.9-9.4
		c-3.5,0.1-7.8,0.6-11.2,2.1c3.1-1.6,7.4-2.6,12.6-2.7c13.1-0.5,28.5,3.9,34.5,9.7c0,0,0.1,0.1,0.1,0.1l0.1-0.4
		c-0.1-0.1-0.1-0.1-0.2-0.2c-6.2-5.9-21.4-10.2-34.6-9.7c-3.8,0.1-8.4,0.7-12.1,2.4c3.3-1.8,7.9-2.9,13.3-3.1
		c12.7-0.4,26.9,3.8,33.3,9.9c0.1,0.1,0.1,0.1,0.2,0.2l0.2-0.5c-0.1-0.1-0.2-0.2-0.3-0.3c-6.5-6.1-20.6-10.3-33.4-9.8
		c-4.8,0.2-8.9,1-12.2,2.5c0.1-0.1,0.2-0.2,0.3-0.3c3.5-1.7,7.9-2.7,13-2.9c12.1-0.4,25.6,3.8,32.2,10.2c0.1,0.1,0.2,0.2,0.3,0.3
		l0.1-0.4c-0.1-0.1-0.3-0.2-0.4-0.4c-6.8-6.4-20.1-10.6-32.3-10.2c-3.8,0.1-7.2,0.7-10.1,1.7c1.2-0.5,2.4-1,3.8-1.4
		c2.3-0.5,4.8-0.9,7.4-1c11.8-0.4,24.2,3.8,31.3,10.4c0.1,0.1,0.3,0.2,0.4,0.4l0.4-0.4c-0.2-0.2-0.5-0.5-0.7-0.7
		c-7.2-6.6-19.6-10.7-31.3-10.3c-0.2,0-0.5,0-0.7,0c0.1,0,0.2,0,0.3,0c7.4-0.9,18.8,0,31,9.1c0.1,0.1,0.2,0.1,0.3,0.2l0.4,0.3
		l0.3-0.4c1.9-2.7,21.7-36,22.5-37.5l0.2-0.4l0.1-0.1l-0.5-0.3c-3-1.6-6.1-3-9.2-4.1c-2.8-1-5.7-1.7-8.5-2.3
		c-3.8-0.8-7.5-1.2-11-1.3c-1.9-0.1-3.8,0-5.6,0.1c-2.4,0.1-4.6,0.4-6.7,0.8c-1.2,0.2-2.3,0.5-3.4,0.8c-1.5,0.4-2.9,0.9-4,1.5
		c-0.7,0.3-1.3,0.7-1.8,1.1c0,0-0.1-0.1-0.1-0.1c-0.5-0.4-1-0.8-1.6-1.2c-0.4-0.2-0.8-0.5-1.2-0.7c-0.7-0.4-1.4-0.7-2.2-1.1
		c-0.5-0.2-1-0.4-1.6-0.7c-0.9-0.3-1.8-0.7-2.8-1c-0.7-0.2-1.4-0.4-2.1-0.6c-1.3-0.3-2.6-0.6-4-0.9c-1-0.2-2.1-0.4-3.2-0.5
		c-2-0.2-4-0.4-6.1-0.4c-1.6,0-3.2,0.1-4.8,0.2c-2.8,0.3-5.6,0.8-8.3,1.7c-1.9,0.6-3.8,1.3-5.7,2.3c-1,0.5-2,1-3,1.6l-0.1,0.1
		c-0.8,0.9-2,2.4-3.4,4.1c-1.1,1.4-2.4,3-3.8,4.8c-2.2,2.8-4.7,5.9-7.1,9c-6.3,8-12.2,15.5-12.3,15.7l-0.7,0.9l0.3,0.3l0.9-0.4
		c-0.2,0.2-0.4,0.3-0.5,0.5c-0.1,0.1-0.2,0.3-0.3,0.4l0.4,0.3c0.3-0.4,0.8-0.8,1.6-1.3c0.6-0.3,1.3-0.7,2.1-1c1.7-0.5,3.3-1,4.8-1.4
		c2.5-0.6,4.8-1,7-1.3c9.5-1.2,16.9,0.4,22.1,2.3c2,0.7,3.7,1.6,5.3,2.4c0.8,0.5,1.5,1,2.3,1.5c-8.2-5.6-19-6.1-25.5-5.9
		c-9.8,0.4-18.7,3.1-20.1,5.2l0.4,0.3c1.1-1.8,9.4-4.6,19.7-5c6.6-0.3,17.8,0.3,26,6.3c-8-5.3-19.2-5.8-25.9-5.5
		c-10,0.4-18.9,2.9-20.2,4.9l0.4,0.3c1-1.6,9.3-4.2,19.8-4.6c6.9-0.3,18.5,0.3,26.4,6c-7.8-5.1-19.4-5.5-26.4-5.3
		c-10.2,0.4-19.1,2.7-20.2,4.5l0.4,0.3c0.9-1.4,9.1-3.8,19.8-4.2c7.2-0.3,19.1,0.2,26.8,5.6c-7.5-4.8-19.5-5.1-26.8-4.8
		c-10.3,0.4-19.2,2.5-20.2,4.1l0.4,0.3c0.8-1.2,9.1-3.4,19.8-3.9c6.1-0.3,19.6-0.1,27.3,5.3c-7.7-4.7-21.2-4.7-27.4-4.5
		c-9.5,0.4-19.1,2.2-20.1,3.7l0.4,0.3c0.7-1.1,8.9-3,19.7-3.5c6.3-0.3,20.5-0.2,27.8,4.9c-7.4-4.4-21.6-4.3-28-4.1
		c-9.7,0.4-19,1.9-19.9,3.3l0.4,0.3c0.6-0.9,8.7-2.6,19.4-3.1c6.6-0.3,21.5-0.3,28.4,4.4c-7-4-22-3.9-28.8-3.6
		c-9.6,0.4-18.7,1.8-19.5,2.9l0.4,0.3c0.5-0.8,8.4-2.2,19.1-2.7c7-0.3,22.7-0.4,29.2,3.9c-6.7-3.6-22.6-3.4-29.8-3.1
		c-8.6,0.4-18.2,1.4-18.9,2.5l0.4,0.3c0.5-0.7,10.7-2.2,23.1-2.4c12.5-0.2,21.5,1.1,25.4,3.5c-6.7-3.3-25-2.8-31.1-2.6
		c-7,0.3-17.2,1.1-17.9,2.1c0,0,0,0,0,0l0,0l0.4,0.3c0.9-0.9,19.7-2.7,34.5-1.8c7.1,0.4,12,1.4,14.4,2.8c-6.2-2.9-26.5-2.3-33.1-2
		c-5.3,0.2-15.2,0.8-16.2,1.6c0,0,0,0-0.1,0.1l0.1,0l0.4,0.3c0.7-0.6,12-1.5,24.1-1.7c13.3-0.1,22.3,0.8,25.2,2.5
		c-6.2-2.6-33-1.6-36.3-1.4c-3.7,0.2-12.2,0.6-13.3,1.1c0,0-0.1,0.1-0.1,0.1l0.1,0.1l0.2,0.2l-0.2,0.3l-3.6,4.9l0.3,2
		c0,0,17.1-0.7,30.5-1c4.8-0.1,9.2-0.2,12.1-0.2c2.1,0,3.4,0.1,3.6,0.2c0,0.4,0.4,1.4,1.1,2.5c1.1,1.6,3.2,3.4,6.9,3.3
		c0.2,0,0.5,0,0.7,0c4.8-0.5,5.8-4.5,5.8-4.5l0.8,0.2l7,1.5l4.7,1l7.8,1.7l5.6,1.2l10.2,2.3l8.2,1.8l2.6,0.6l4.6-7.5l3.4-5.6l5-8.2
		l3.2-5.3l5.1-8.4l3.5-5.8l1.8-3L251.1,78.9z M121.4,109.3l0-0.4c1.8-0.3,12.8-0.8,24.6-0.9c14.5-0.2,23.8,0.3,25,1.3
		c-4.8-1.1-43-0.2-47.9,0C122.2,109.3,121.7,109.3,121.4,109.3 M146,109.3c22.3-0.2,24.9,0.3,25.1,0.5l0,0l-49.7,0.5l0-0.5
		C123.4,109.7,134,109.4,146,109.3 M131.9,110.7l-10.4,0.2l0-0.1L131.9,110.7z M182.7,85.1L182.7,85.1
		C182.7,85.1,182.7,85.1,182.7,85.1L182.7,85.1z M243.9,67.4c-2.4,4-19,32-21.9,36.5c-11.8-8.8-22.9-10-30.5-9.3
		c0.3,0,0.6-0.1,0.9-0.1c2.4-0.3,4.8-0.4,7.2-0.2c-2.4-0.4-4.8-0.5-7.2-0.4c-2.4,0.1-4.9,0.5-7.2,1.1c-1.3,0.3-2.5,0.7-3.8,1.2
		c1.7-0.9,3.5-1.6,5.3-2.2c2.3-0.7,4.6-1.2,7-1.5c2.4-0.3,4.8-0.3,7.2-0.1c-2.4-0.4-4.8-0.5-7.2-0.4c-2.4,0.1-4.8,0.4-7.2,1
		c-1.3,0.3-2.7,0.7-4,1.2c1.8-0.9,3.6-1.7,5.5-2.3c2.3-0.7,4.6-1.2,7-1.4c2.4-0.2,4.8-0.3,7.2,0c-2.4-0.4-4.8-0.5-7.2-0.5
		c-2.4,0.1-4.8,0.4-7.2,0.9c-1.4,0.3-2.8,0.7-4.1,1.2c1.8-0.9,3.7-1.7,5.7-2.3c2.3-0.7,4.6-1.1,7-1.3c2.4-0.2,4.8-0.2,7.1,0
		c-2.4-0.4-4.8-0.6-7.2-0.5c-2.4,0-4.8,0.3-7.2,0.8c-1.4,0.3-2.9,0.7-4.3,1.2c1.8-0.9,3.8-1.7,5.8-2.2c2.3-0.6,4.6-1,6.9-1.2
		c2.4-0.2,4.7-0.2,7.1,0.1c-2.3-0.4-4.7-0.6-7.1-0.6c-2.4,0-4.8,0.3-7.2,0.8c-1.5,0.3-3,0.7-4.4,1.2c1.9-0.9,3.9-1.7,5.9-2.2
		c2.3-0.6,4.6-1,6.9-1.2c2.3-0.2,4.7-0.2,7.1,0.1c-2.3-0.4-4.7-0.6-7.1-0.6c-2.4,0-4.8,0.2-7.1,0.7c-1.5,0.3-3,0.7-4.5,1.2
		c1.9-0.9,3.9-1.6,6-2.2c2.3-0.6,4.6-0.9,6.9-1.1c2.3-0.2,4.7-0.1,7.1,0.2c-2.3-0.5-4.7-0.7-7.1-0.7c-2.4,0-4.8,0.2-7.1,0.6
		c-1.6,0.3-3.1,0.7-4.7,1.2c1.9-0.9,4-1.7,6.1-2.2c2.3-0.5,4.6-0.9,6.9-1c2.3-0.1,4.7-0.1,7,0.2c-2.3-0.5-4.7-0.7-7-0.7
		c-2.4,0-4.7,0.1-7.1,0.5c-1.6,0.3-3.2,0.6-4.8,1.2c2-0.9,4.1-1.7,6.3-2.2c2.3-0.5,4.6-0.8,6.9-0.9c2.3-0.1,4.7,0,7,0.3
		c-2.3-0.5-4.6-0.7-7-0.8c-2.4-0.1-4.7,0.1-7.1,0.4c-1.7,0.2-3.4,0.6-5,1.2c2-1,4.2-1.7,6.5-2.1c2.3-0.5,4.6-0.8,6.9-0.9
		c2.3-0.1,4.7,0,7,0.3c-2.3-0.5-4.6-0.8-7-0.8c-2.4-0.1-4.7,0-7.1,0.4c-1.7,0.2-3.5,0.6-5.2,1.2c2.1-1,4.3-1.7,6.6-2.1
		c2.3-0.5,4.6-0.7,6.9-0.8c2.3-0.1,4.6,0,7,0.4c-2.3-0.5-4.6-0.8-6.9-0.9c-2.3-0.1-4.7,0-7,0.3c-1.8,0.2-3.6,0.6-5.4,1.1
		c0.1,0,0.2-0.1,0.3-0.1c2.1-0.9,4.3-1.5,6.5-2c2.2-0.4,4.5-0.7,6.9-0.7c2.3-0.1,4.6,0.1,6.9,0.4c-2.3-0.5-4.6-0.8-6.9-0.9
		c-2.3-0.1-4.7-0.1-7,0.2c-1.9,0.2-3.8,0.6-5.6,1.1c0.2-0.1,0.3-0.1,0.5-0.2c2.1-0.9,4.3-1.5,6.5-1.9c2.2-0.4,4.5-0.6,6.8-0.7
		c2.3,0,4.6,0.1,6.9,0.4c-2.3-0.5-4.6-0.8-6.9-1c-2.3-0.1-4.7-0.1-7,0.1c-1.9,0.2-3.9,0.6-5.8,1.1c0.2-0.1,0.4-0.2,0.7-0.3
		c2.1-0.8,4.3-1.4,6.5-1.8c2.2-0.4,4.5-0.6,6.8-0.6c2.3,0,4.6,0.1,6.9,0.5c-2.2-0.5-4.5-0.8-6.9-1c-2.3-0.1-4.6-0.1-7,0.1
		c-2,0.2-4,0.5-6,1.1c0.3-0.1,0.6-0.2,0.8-0.3c2.1-0.8,4.3-1.3,6.5-1.7c2.2-0.4,4.5-0.5,6.8-0.5c2.3,0,4.6,0.1,6.9,0.5
		c-2.2-0.5-4.5-0.9-6.8-1c-2.3-0.2-4.6-0.2-7,0c-2.1,0.2-4.1,0.5-6.2,1c0.3-0.1,0.7-0.3,1-0.4c2.1-0.8,4.3-1.3,6.5-1.6
		c2.2-0.3,4.5-0.5,6.8-0.5c2.3,0,4.6,0.2,6.8,0.5c-2.2-0.5-4.5-0.9-6.8-1.1c-2.3-0.2-4.6-0.2-6.9-0.1c-2.1,0.1-4.3,0.5-6.4,1
		c0.4-0.2,0.8-0.3,1.2-0.5c2.1-0.7,4.3-1.2,6.5-1.5c2.2-0.3,4.5-0.4,6.8-0.4c2.3,0,4.6,0.2,6.8,0.6c-2.2-0.5-4.5-0.9-6.8-1.1
		c-2.3-0.2-4.6-0.2-6.9-0.1c-2.2,0.1-4.4,0.4-6.6,1c0.5-0.2,0.9-0.4,1.4-0.5c2.1-0.7,4.3-1.1,6.5-1.4c2.2-0.3,4.5-0.4,6.8-0.3
		c2.3,0,4.5,0.2,6.8,0.6c-2.2-0.6-4.5-0.9-6.8-1.1c-2.3-0.2-4.6-0.3-6.9-0.2c-1.6,0.1-3.3,0.2-4.9,0.5
		C212.2,58.8,229.3,59.6,243.9,67.4 M159.1,94.2c-3.4-1.3-7.7-2.4-12.9-2.7c-5.7-0.4-12.4,0.2-20.1,2.5c2.6-1.5,5.6-2.5,8.7-3.1
		c1.9-0.4,3.9-0.7,5.9-0.8c2-0.1,4-0.1,5.9,0.1c-2-0.4-4-0.5-6-0.6c-2,0-4,0-6,0.3c-0.9,0.1-1.8,0.3-2.8,0.4
		c1.4-0.5,2.9-0.9,4.4-1.2c1.9-0.4,3.9-0.7,5.9-0.8c2-0.1,4-0.1,6,0.1c-2-0.4-4-0.6-6-0.6c-2,0-4,0-6,0.3c-0.9,0.1-1.8,0.3-2.8,0.4
		c1.4-0.5,2.9-0.9,4.4-1.2c1.9-0.4,3.9-0.7,5.9-0.8c2-0.1,4-0.1,6,0.1c-2-0.4-4-0.6-6-0.6c-2,0-4,0.1-6.1,0.3
		c-0.9,0.1-1.8,0.3-2.8,0.4c1.4-0.5,2.9-0.9,4.4-1.2c1.9-0.4,3.9-0.7,5.9-0.8c2-0.1,4-0.1,6,0.1c-2-0.4-4-0.6-6-0.7
		c-2,0-4.1,0.1-6.1,0.3c-0.9,0.1-1.8,0.3-2.8,0.4c1.4-0.5,2.9-0.9,4.4-1.2c1.9-0.4,3.9-0.7,5.9-0.8c2-0.1,4-0.1,6,0.2
		c-2-0.5-4-0.6-6-0.7c-2,0-4.1,0.1-6.1,0.3c-0.9,0.1-1.8,0.3-2.8,0.5c1.4-0.5,2.9-0.9,4.4-1.2c2-0.4,3.9-0.7,6-0.8
		c2-0.1,4-0.1,6,0.2c-2-0.5-4-0.7-6-0.7c-2,0-4.1,0.1-6.1,0.3c-0.9,0.1-1.8,0.3-2.8,0.5c1.4-0.5,2.9-0.9,4.4-1.2c2-0.4,4-0.7,6-0.9
		c2-0.1,4-0.1,6,0.2c-2-0.5-4-0.7-6.1-0.7c-2,0-4.1,0.1-6.1,0.4c-0.9,0.1-1.8,0.3-2.7,0.5c1.4-0.5,2.9-0.9,4.4-1.2
		c2-0.4,4-0.7,6-0.9c2-0.1,4.1-0.1,6.1,0.2c-2-0.5-4-0.7-6.1-0.8c-2.1,0-4.1,0.1-6.2,0.4c-0.9,0.1-1.8,0.3-2.7,0.5
		c1.4-0.5,2.9-0.9,4.4-1.3c2-0.4,4-0.7,6-0.9c2-0.1,4.1-0.1,6.1,0.3c-2-0.6-4-0.7-6.1-0.8c-2.1,0-4.1,0.1-6.2,0.4
		c-0.9,0.1-1.8,0.3-2.7,0.5c1.4-0.5,2.9-0.9,4.4-1.3c2-0.4,4-0.7,6-0.9c2-0.1,4.1-0.1,6.1,0.3c-2-0.6-4.1-0.8-6.1-0.8
		c-2.1,0-4.1,0.1-6.2,0.4c-0.9,0.1-1.8,0.3-2.7,0.5c1.4-0.5,2.9-0.9,4.4-1.3c2-0.5,4-0.8,6-0.9c2-0.1,4.1-0.1,6.1,0.3
		c-2-0.6-4.1-0.8-6.1-0.8c-2.1,0-4.1,0.1-6.2,0.4c-0.9,0.1-1.8,0.3-2.7,0.5c1.4-0.5,2.9-0.9,4.4-1.3c2-0.5,4-0.8,6.1-0.9
		c2-0.1,4.1-0.2,6.1,0.3c-2-0.6-4.1-0.8-6.1-0.8c-2.1,0-4.2,0.1-6.2,0.4c-0.9,0.1-1.8,0.3-2.7,0.5c1.4-0.5,2.9-0.9,4.4-1.3
		c2-0.5,4-0.8,6.1-0.9c2-0.1,4.1-0.2,6.1,0.3c-2-0.7-4.1-0.8-6.2-0.9c-2.1,0-4.2,0.1-6.2,0.4c-0.9,0.1-1.8,0.3-2.7,0.5
		c1.4-0.5,2.9-0.9,4.4-1.3c2-0.5,4-0.8,6.1-0.9c2.1-0.1,4.1-0.2,6.2,0.4c-2-0.7-4.1-0.8-6.2-0.9c-2.1,0-4.2,0.1-6.3,0.4
		c-0.9,0.1-1.8,0.3-2.7,0.5c1.4-0.5,2.9-0.9,4.4-1.3c2-0.5,4.1-0.8,6.1-0.9c2.1-0.1,4.2-0.2,6.2,0.4c-2-0.7-4.1-0.9-6.2-0.9
		c-2.1,0-4.2,0.1-6.3,0.4c-0.9,0.1-1.8,0.3-2.7,0.5c1.4-0.5,2.9-0.9,4.4-1.3c2-0.5,4.1-0.8,6.1-1c2.1-0.1,4.2-0.2,6.2,0.4
		c-2-0.8-4.1-0.9-6.2-0.9c-2.1,0-4.2,0.1-6.3,0.4c-0.9,0.1-1.8,0.3-2.7,0.5c1.4-0.5,2.9-0.9,4.4-1.3c2-0.5,4.1-0.8,6.2-1
		c2.1-0.1,4.2-0.2,6.2,0.4c-2-0.8-4.1-0.9-6.2-0.9c-2.1,0-4.2,0.1-6.3,0.5c-0.9,0.1-1.8,0.3-2.7,0.5c1.4-0.5,2.9-0.9,4.4-1.3
		c2-0.5,4.1-0.8,6.2-1c2.1-0.1,4.2-0.2,6.2,0.4c-2-0.8-4.1-0.9-6.2-1c-2.1,0-4.2,0.2-6.3,0.5c-2,0.3-3.9,0.7-5.8,1.3
		c17-7,35.7-0.1,40.3,3.8l-22.2,37.6C170.3,100.4,166.1,96.8,159.1,94.2 M145.6,106.7c14-0.2,23,0.5,25.1,1.9
		c-5.1-1.8-31.8-1.1-41.5-0.7c-5.2,0.2-7.2,0.4-7.9,0.5l0-0.4C122.8,107.5,133.8,106.8,145.6,106.7 M235.8,103.7l-11.9,18.7
		l-0.1,0.1l-0.1,0l-23.6-4.4c-3.9-0.8-7.9-1.5-11.8-2.3l-5.9-1.2c-1.9-0.4-3.8-0.8-5.6-1.3c-0.4,1.4-1,2.8-2.1,3.9
		c-0.6,0.5-1.3,0.9-2.1,1.1c-0.8,0.2-1.6,0.2-2.4,0c-1.5-0.3-3-1-4.1-2.2c-1-1.2-1.5-2.6-1.5-4.1l-22.8,0.6l-23,0.5l23-0.8l23-0.7
		l0.2,0l0,0.2c0,1.5,0.5,3,1.5,4.1c1,1.1,2.4,1.8,3.8,2c0.7,0.1,1.5,0.1,2.2,0c0.7-0.2,1.3-0.5,1.9-1c1.1-1,1.7-2.4,2-3.9l0.1-0.2
		l0.2,0.1c1.9,0.5,3.9,0.9,5.8,1.3l5.9,1.2l11.8,2.3l23.5,4.5l11.9-18.5l12-18.6L235.8,103.7z M245.5,68.7l-22.5,38l-0.3-0.3
		l22.7-38.5l0.2-0.3l0.4,0.3L245.5,68.7z M245.7,69l0.4,0.3l-0.2,0.4l-0.2,0.4l-23.1,38.2l0.1-0.4l22.9-38.6L245.7,69z M245.8,70.6
		l0.4,0.3l-0.4,0.6l-23.4,38.2l-0.1-0.2L245.8,70.6L245.8,70.6z M246.2,73.8l0.3,0.2l-0.2,0.4l-24.1,38.4l-0.1-0.3l23.9-38.7
		L246.2,73.8z M246.4,75.4l0.2,0.1l-0.1,0.2l-24.4,38.5l0-0.3l24.1-38.6L246.4,75.4z M246.3,76.8l0.3,0.2l0.1,0.1l-0.1,0.1
		l-24.7,38.5l-0.1-0.3l0,0l0,0L246.3,76.8z"/>
	<path d="M164.1,79.5L164.1,79.5L164.1,79.5z"/>
</g>
</svg>
