<?xml version="1.0" encoding="utf-8"?>
<!-- Generator: Adobe Illustrator 26.0.2, SVG Export Plug-In . SVG Version: 6.00 Build 0)  -->
<svg version="1.1" id="publicdomainvectors.org" xmlns="http://www.w3.org/2000/svg" xmlns:xlink="http://www.w3.org/1999/xlink"
	 x="0px" y="0px" viewBox="0 0 660 660" style="enable-background:new 0 0 660 660;" xml:space="preserve">
<style type="text/css">
	.st0{fill:#86BDBF;}
	.st1{fill:#010101;}
</style>
<g>
	<path class="st0" d="M401.7,244.2c-6.5,1.9-12.3,4.1-17.4,6.6L490.7,60.6c13.2,7.4,26,16,37.8,25.5L401.7,244.2z M316.5,28.5
		c-15.1,2.2-30.1,5.7-44.6,10.4l63.3,196.2c4.2,1.3,8.3,2.8,12.1,4.2L316.5,28.5z M464,47.5c-14-6-28.7-10.8-43.5-14.3l-51.7,216.7
		c2.7,1.7,5.1,3.5,7.1,5.1L464,47.5z M391.2,27.8c-9.8-1.2-19.8-2-29.5-2.1c-5.2-0.1-10.5-0.1-15.7,0.1l8.2,216.3
		c3.4,1.5,6.5,3,9.3,4.6L391.2,27.8z M244.1,49.6c-13.9,6.2-27.3,13.6-39.9,22l104.4,157c6,1.1,11.9,2.4,17.4,3.9L244.1,49.6z
		 M286.6,566.9c14.7,3.9,29.8,6.5,45,7.9l7.8-87l-30.4-6.7L286.6,566.9z M130,144.6c-8.6,12.5-16.3,25.9-22.7,39.6l104.5,48.9
		c12-3.7,24.1-6,36.1-7.2L130,144.6z M81.8,285.7c-0.2,3.3-0.3,6.6-0.4,9.8c-0.2,11.8,0.3,23.7,1.6,35.4l28.6-3.1
		c10.4-13.2,21.1-26.7,30.8-38.8L81.8,285.7z M174.3,250c4.2-2.6,8.5-4.9,12.8-7.1l-91-31.1c-4.9,14.4-8.7,29.3-11.1,44.4l74,12.1
		c6.2-7.7,11.3-13.9,14.7-17.9L174.3,250z M294.7,226.5L180.5,89.3c-11.6,9.7-22.6,20.4-32.4,31.9l120.4,103.7
		C277.4,224.9,286.2,225.5,294.7,226.5 M595.9,271.1l-0.2,0.4l0.4,3.2l0.9-1.5l1.9,1.2l-2.3,3.9l0.4,2.6l0.5-0.9l1.9,1.2l-1.1,1.7
		l32.5-2.4c-1.1-15.2-3.5-30.3-7.1-45.1l-69.7,17c13.5,4.7,26.9,10.5,39.9,17.6L595.9,271.1z M600.3,305.4l0.3,2.2l0.9,0.5l-0.6,1
		l0.7,5.5l0.4,0.3l-0.3,0.5l1,7.5l18.1-0.1l2.2,13.1l-8,13.1l11.9,2.2c2-10.7,3.3-21.6,4-32.4c0.3-4.2,0.5-8.5,0.5-12.7L600.3,305.4
		z M615.1,206.8c-5.2-14.3-11.6-28.2-19.1-41.5L469.5,237c15.2,0.5,31.3,2.2,47.6,5.5L615.1,206.8z M580,140.4
		c-8.8-12.3-18.8-24-29.5-34.6l-134.4,135c8.9-1.7,18.6-2.9,29-3.5L580,140.4z M95.9,389.2c10.6-2.8,20.6-5,30.1-6.5
		c-9.7,1.2-19.8,3-30.4,5.6C95.7,388.6,95.8,388.9,95.9,389.2 M361,575.9c15.2-0.2,30.4-1.8,45.3-4.5l-13.2-71.7l-33.5-7.4
		L361,575.9z M247.7,485.7L217,537.9c13.1,7.7,27,14.4,41.3,19.9l22.1-57.9c-0.9,0.1-1.9,0.2-2.9,0.2
		C261.7,500.5,252.6,492.8,247.7,485.7 M435.2,564.4c14.6-4.4,29-10,42.6-16.7l-16.2-32.9l-44.2-9.7L435.2,564.4z M497,522.5
		l6.8,10.6c12.8-8.1,25-17.3,36.3-27.5l-11.9-13.3L508.3,525L497,522.5z M175.5,474.8l-17.3,16.7c10.5,10.9,22,21,34.1,30.1
		l35.3-47.4C215.2,474,196.4,474.3,175.5,474.8 M603.1,422.7c6.8-13.7,12.4-28,16.8-42.6l-20.1-6.1l-21.9,36.1L603.1,422.7z
		 M561,484.8c10.2-11.3,19.4-23.5,27.6-36.2L564.1,433l-21.4,35.3L561,484.8z"/>
	<path class="st1" d="M620.7,322.7l-18.1,0.1l-1,0l0.8-1.2l-1.9-1.2L494.1,486.5l-0.6,1l0.6,0.7l0.2,0.2l106.9-164.6l0.5,3.7
		l-0.5-0.3L493.8,492.9l-0.8,1.3l0.6,0.6l0.2-0.2l108.2-164.7l0.6,4.5l-0.9-0.6L493.7,496.3l-2,3l-1.4-0.3l0.2-0.8l-213.8-42
		c10.1-1.2,206.1,35.7,213.4,40.1l1.6-1.6c-3.9-3.9-197.3-40.6-214.3-40.8c5.1-1.5,39.7,2.3,106.8,14.7
		c55.8,10.3,104.6,21.4,107.5,24.3l1-1.9c-7.3-7.2-186.3-40.5-212.7-39.6c-0.6,0-1.1,0.1-1.6,0.1c1.1-0.3,3-0.7,6.3-0.8
		c40.6-1.4,197.8,29.5,206.5,38.1l1.6-1.6c-10.1-9.9-171.5-40-208.1-38.7c-2.2,0.1-3.8,0.2-5.1,0.5c2-0.7,5.3-1.3,11.1-1.5
		c47.9-1.7,190,26.6,201.1,37.6l1.6-1.6c-12.8-12.7-156.9-39.8-202.8-38.2c-4.1,0.1-7.4,0.5-9.9,1.1c3-1.1,8.1-2.1,16.7-2.4
		c54.9-1.9,181.5,24.2,194.9,37.4l1.6-1.6C479,465.3,348.5,440,297.2,441.8c-6.5,0.2-11.5,0.8-15.3,1.9c4.1-1.7,11-3.1,22.6-3.5
		c55.6-1.9,171.6,21.2,188.2,37.6l1.6-1.6c-16.8-16.6-133.9-40.1-189.8-38.2c-9.1,0.3-16.2,1.3-21.3,2.9c6.2-2.7,16-4.4,28.9-4.8
		c58-2,163,20,181.2,37.9l1.4-1.5l0.1-0.1c0,0-0.1-0.1-0.1-0.1C475.9,454,370.3,431.8,312,433.8c-11.7,0.4-20.9,1.8-27.3,4
		c7.6-3.5,19.5-5.6,34.9-6.1c59.8-2.1,154.2,18.8,174.2,38.5l1-1l0.5-0.6c-0.2-0.2-0.3-0.3-0.5-0.5
		c-21.3-19.9-115.5-40.8-175.3-38.7c-14.4,0.5-25.5,2.3-33.4,5.3c9.1-4.4,22.9-7,40.7-7.6c59.9-2.1,146,18.2,167.4,39.3l0.6-0.6
		l0.9-1c-0.3-0.3-0.6-0.5-0.9-0.8c-23.1-21.2-108.6-41.2-168.2-39.2c-12.7,0.4-28.2,2.1-39.5,6.9c10.5-5.4,26.2-8.6,46.5-9.3
		c59.7-2.1,138,17.5,161.1,40.3l0.2-0.2l1.1-1.1l0.3,1l102.5-165.6l1.3-2.1l-1.8-1.1l-0.2-0.1L496.3,461c-0.3-0.3-0.7-0.7-1-1
		c-24.8-22.6-102.3-41.8-161.5-39.8c-14.3,0.5-31.7,2.5-44.8,8.3c11.9-6.4,29.3-10.1,51.3-10.9c58.2-2,130.5,17.2,155,41.2
		c0.1,0.1,0.1,0.1,0.2,0.2l1.6-1.6c-0.5-0.5-1.1-1-1.6-1.5c-26.2-23.7-97.6-42.5-155.2-40.5c-15.2,0.5-33.8,2.7-48.3,9.2
		c13.2-7,31.8-11.1,54.3-11.9c56.5-2,123.2,16.9,149.3,42c0.2,0.2,0.4,0.3,0.5,0.5l0.5-1.8c-0.3-0.3-0.6-0.6-0.9-0.9
		c-26.7-25.4-92.7-44-149.4-42.1c-16.2,0.6-36.3,3-52.2,10.5c14.4-7.9,34.2-12.5,57.7-13.3c54.8-1.9,116.4,16.5,144.1,43
		c0.3,0.3,0.6,0.6,0.9,0.8l0.7-2.2c-0.5-0.5-1-0.9-1.5-1.4c-28.3-26.5-89.2-44.4-144.2-42.5c-20.7,0.7-38.7,4.4-52.7,10.6
		c0.5-0.4,1-0.7,1.5-1.1c15-7.4,34.1-11.6,56.2-12.4c52.4-1.8,110.5,16.6,139.3,44c0.4,0.4,0.9,0.8,1.3,1.2l0.5-1.9
		c-0.5-0.5-1.1-1.1-1.7-1.6c-29.3-27.5-86.8-45.7-139.5-43.9c-16.3,0.6-31,3-43.7,7.3c5-2.2,10.5-4.2,16.3-6
		c9.9-2.3,20.6-3.7,32-4.1c50.9-1.8,104.8,16.3,135.1,45c0.5,0.5,1.1,1,1.6,1.6l1.6-1.6c-1-1-2-2-3.1-2.9
		c-31-28.4-84.7-46.1-135.3-44.3c-1,0-2.1,0.1-3.1,0.1c0.4,0,0.8-0.1,1.1-0.2c32-3.9,81.2-0.1,134.1,39.3c0.4,0.3,0.9,0.6,1.3,1
		l1.9,1.4l1.3-1.9c8.2-11.8,93.6-155.8,97.3-161.9l0.9-1.6l0.2-0.4l-2-1.1c-12.9-7.1-26.3-12.9-39.9-17.6
		c-12.3-4.2-24.7-7.5-36.9-10c-16.3-3.2-32.4-5-47.6-5.5c-8.4-0.3-16.6-0.2-24.4,0.3c-10.3,0.6-20.1,1.8-29,3.5
		c-5.1,1-10,2.2-14.5,3.5c-6.5,1.9-12.3,4.1-17.4,6.6c-2.9,1.4-5.6,3-8,4.6c-0.1-0.1-0.3-0.2-0.4-0.4c-2-1.7-4.4-3.4-7.1-5.1
		c-1.6-1-3.4-2.1-5.3-3.1c-2.9-1.6-6-3.1-9.3-4.6c-2.2-1-4.5-1.9-6.8-2.8c-3.8-1.5-7.8-2.9-12.1-4.2c-3-0.9-6.1-1.8-9.3-2.7
		c-5.5-1.5-11.4-2.8-17.4-3.9c-4.5-0.8-9.2-1.5-13.9-2.1c-8.5-1-17.3-1.6-26.3-1.6c-6.8,0-13.7,0.3-20.6,1
		c-12,1.2-24.1,3.5-36.1,7.2c-8.3,2.6-16.6,5.8-24.6,9.8c-4.3,2.1-8.6,4.5-12.8,7.1l-0.5,0.4c-3.4,4-8.5,10.2-14.7,17.9
		c-4.9,6.1-10.6,13.1-16.6,20.7c-9.7,12.1-20.4,25.6-30.8,38.8c-27.3,34.6-52.8,67.2-53.3,67.8l-2.9,3.7l1.1,1.5l4.1-1.6
		c-0.9,0.7-1.7,1.4-2.3,2.1c-0.6,0.6-1,1.1-1.4,1.7l1.9,1.2c1.1-1.7,3.5-3.6,6.9-5.6c2.5-1.4,5.5-2.9,9.1-4.4
		c7.2-2.3,14.1-4.3,20.9-6c10.6-2.6,20.8-4.4,30.4-5.6c41-5,73.1,1.7,95.4,10.1c8.6,3.2,16.2,6.8,22.8,10.4c3.3,2,6.6,4.2,9.8,6.6
		c-35.4-24-82-26.5-110.1-25.4c-42.4,1.8-80.9,13.4-86.9,22.7l1.9,1.2c5-7.6,40.6-19.8,85.1-21.7c28.7-1.2,77,1.5,112.2,27.4
		c-34.5-23-82.8-25.2-111.9-24c-43.3,1.8-81.7,12.6-87.2,21l1.9,1.2c4.5-6.9,40-18.1,85.4-20c29.9-1.2,80.1,1.1,114.2,26.1
		c-33.6-22-83.8-24-114.1-22.7c-44,1.8-82.4,11.7-87.4,19.3l1.9,1.2c4-6.2,39.4-16.4,85.6-18.3c30.9-1.3,82.7,0.7,115.6,24.3
		c-32.5-20.6-84.4-22.2-115.8-20.8c-44.5,1.8-82.8,10.8-87.2,17.7l1.9,1.2c3.5-5.4,39.4-14.7,85.4-16.7
		c26.2-1.1,84.5-0.5,117.9,22.8c-33.1-20.3-91.7-20.5-118.4-19.4c-41.1,1.7-82.4,9.3-86.8,16l1.9,1.2c3.1-4.7,38.5-13,85-15
		c27.3-1.1,88.5-0.9,120.2,21.1c-31.8-18.9-93.3-18.8-121.2-17.6c-41.9,1.7-82,8.4-85.8,14.3l1.9,1.2c2.6-4,37.5-11.3,84-13.3
		c28.6-1.2,92.8-1.3,122.8,19.1c-30.4-17.3-95.1-16.8-124.5-15.6c-41.6,1.7-80.9,7.6-84.2,12.6l1.9,1.2c2.2-3.3,36.1-9.6,82.4-11.6
		c30.2-1.2,98-1.7,126.1,17c-28.8-15.6-97.7-14.8-128.8-13.5c-37,1.5-78.6,6.3-81.6,10.8l1.9,1.2c2.3-3.1,46.1-9.6,100-10.4
		c53.9-0.8,92.7,4.7,109.7,15.2c-28.8-14.2-108.2-12.2-134.3-11.1c-30.3,1.3-74.1,4.9-77.2,9c0,0,0,0,0,0.1l0,0l1.8,1.2
		c3.8-3.9,85-11.6,149.2-7.9c30.8,1.8,52,5.9,62.1,12.2c-26.9-12.4-114.5-9.9-143.1-8.7c-22.7,0.9-65.8,3.6-69.9,7
		c-0.1,0.1-0.2,0.2-0.2,0.2l0.3,0.2l1.5,1.2c3.1-2.4,52-6.7,104.2-7.3c57.7-0.6,96.5,3.3,108.8,10.8c-26.9-11.1-142.8-6.7-156.9-6.1
		c-16.1,0.7-52.9,2.4-57.4,4.9c-0.2,0.1-0.3,0.2-0.4,0.3l0.5,0.3l1.1,0.7l-0.9,1.3l-15.6,21.1l1.4,8.8c0,0,73.9-2.9,131.7-4.2
		c20.9-0.5,39.6-0.8,52.1-0.7c9,0.1,14.7,0.3,15.5,0.9c0.2,1.9,1.6,6.2,4.6,10.7c4.9,7.1,14,14.7,29.8,14.3c1,0,2-0.1,2.9-0.2
		c20.8-2,25.1-19.5,25.1-19.5l3.6,0.8l30.4,6.7l20.2,4.5l33.5,7.4l24.4,5.4l44.2,9.7l35.3,7.8l11.3,2.5l19.8-32.6l14.6-24.1
		l21.4-35.3l13.8-22.8l21.9-36.1l15.3-25.2l8-13.1L620.7,322.7z M60.1,454.1l-0.1-1.9c7.7-1.3,55.4-3.4,106.5-4
		c62.9-0.7,103,1.4,108.2,5.6c-20.7-4.9-185.7-1-207.1-0.1C63.8,453.9,61.5,454,60.1,454.1 M166.3,453.9c96.4-1,107.6,1.5,108.6,2.2
		l0.1,0.1l-214.7,2.2l-0.1-2C69,455.7,114.8,454.4,166.3,453.9 M105.6,460.1l-45.1,0.8l0-0.3L105.6,460.1z M325.1,349.2L325.1,349.2
		c0,0.1,0,0.1-0.1,0.1L325.1,349.2z M589.7,272.8c-10.2,17.1-82,138.1-94.6,157.7c-51.2-37.9-98.9-43.2-131.6-40.3
		c1.3-0.2,2.5-0.4,3.8-0.5c10.3-1.2,20.7-1.5,31.1-0.6c-10.3-1.6-20.8-2-31.3-1.6c-10.5,0.5-21,2.1-31.2,4.7
		c-5.5,1.4-11,3.2-16.4,5.2c7.4-3.8,15.1-7.1,23-9.7c9.7-3.2,19.9-5.3,30.1-6.4c10.3-1.1,20.7-1.4,31-0.4
		c-10.3-1.7-20.7-2.2-31.2-1.8c-10.5,0.4-20.9,1.8-31.2,4.3c-5.8,1.4-11.6,3.2-17.2,5.3c7.6-3.9,15.6-7.2,23.8-9.8
		c9.7-3,19.9-5,30.1-6.1c10.2-1,20.6-1.2,30.9-0.2c-10.2-1.8-20.6-2.3-31.1-2.1c-10.4,0.3-20.9,1.6-31.1,4c-6.1,1.4-12,3.2-17.9,5.4
		c7.8-4,16-7.2,24.5-9.7c9.7-2.9,19.8-4.8,30-5.7c10.2-0.9,20.5-1,30.8,0.1c-10.2-1.8-20.6-2.5-30.9-2.3c-10.4,0.2-20.8,1.4-31,3.6
		c-6.2,1.4-12.4,3.1-18.5,5.3c8-4,16.4-7.2,25-9.7c9.8-2.8,19.8-4.5,30-5.4c10.2-0.8,20.5-0.9,30.7,0.3c-10.1-1.9-20.5-2.6-30.8-2.5
		c-10.4,0.1-20.7,1.2-31,3.3c-6.4,1.3-12.8,3-19,5.2c8.1-4.1,16.7-7.1,25.5-9.6c9.7-2.6,19.8-4.3,30-5c10.2-0.8,20.4-0.7,30.6,0.5
		c-10.1-1.9-20.4-2.8-30.7-2.8c-10.3,0-20.7,0.9-30.9,2.9c-6.6,1.3-13.1,2.9-19.5,5.1c8.2-4.1,17-7.1,25.9-9.4
		c9.7-2.5,19.8-4,29.9-4.7c10.1-0.7,20.3-0.5,30.5,0.7c-10-2-20.3-2.9-30.5-3c-10.3-0.1-20.6,0.7-30.8,2.6
		c-6.8,1.2-13.5,2.9-20.1,5.1c8.4-4.1,17.3-7.2,26.5-9.4c9.7-2.4,19.8-3.8,29.9-4.4c10.1-0.6,20.3-0.4,30.4,0.9
		c-10-2-20.2-3-30.4-3.2c-10.2-0.2-20.5,0.5-30.7,2.2c-7,1.1-14,2.8-20.8,5c8.6-4.1,17.7-7.2,27.2-9.3c9.7-2.2,19.7-3.5,29.8-4
		c10.1-0.5,20.2-0.2,30.3,1.1c-9.9-2.1-20.1-3.1-30.3-3.4c-10.2-0.2-20.5,0.3-30.6,1.9c-7.3,1.1-14.6,2.7-21.7,5
		c8.8-4.1,18.3-7.2,27.9-9.3c9.7-2.1,19.7-3.3,29.8-3.7c10-0.4,20.1-0.1,30.2,1.3c-9.9-2.1-20-3.3-30.2-3.6
		c-10.2-0.3-20.4,0.1-30.5,1.5c-7.6,1-15.1,2.7-22.4,5c9.1-4.1,18.8-7.2,28.6-9.2c9.7-2,19.7-3.1,29.7-3.4c10-0.3,20.1,0.1,30,1.5
		c-9.8-2.2-19.9-3.4-30-3.8c-10.1-0.4-20.3-0.1-30.4,1.2c-7.8,1-15.6,2.6-23.3,4.9c0.4-0.2,0.8-0.4,1.3-0.6
		c8.9-3.9,18.4-6.7,28.2-8.5c9.7-1.9,19.7-2.9,29.6-3.1c10-0.3,20,0.2,29.9,1.7c-9.8-2.2-19.8-3.4-29.9-3.9
		c-10.1-0.5-20.2-0.3-30.4,0.9c-8.1,1-16.2,2.5-24.1,4.9c0.7-0.3,1.4-0.6,2.1-0.9c9-3.7,18.5-6.4,28.2-8.1
		c9.7-1.8,19.6-2.7,29.6-2.8c10-0.2,19.9,0.4,29.8,1.9c-9.8-2.2-19.7-3.5-29.8-4.1c-10-0.6-20.2-0.4-30.3,0.6
		c-8.4,0.9-16.8,2.4-25,4.8c1-0.4,1.9-0.8,2.9-1.2c9-3.6,18.5-6.1,28.2-7.7c9.7-1.6,19.6-2.5,29.5-2.6c9.9-0.1,19.9,0.5,29.7,2
		c-9.7-2.3-19.7-3.6-29.7-4.3c-10-0.6-20.1-0.6-30.2,0.3c-8.7,0.8-17.3,2.3-25.8,4.6c1.2-0.5,2.4-1,3.6-1.5c9-3.4,18.5-5.8,28.2-7.3
		c9.7-1.5,19.6-2.2,29.4-2.3c9.9,0,19.8,0.6,29.6,2.2c-9.7-2.3-19.6-3.7-29.5-4.4c-10-0.7-20-0.7-30,0.1c-8.9,0.7-17.9,2.1-26.6,4.5
		c1.4-0.6,2.9-1.2,4.3-1.7c9-3.3,18.6-5.5,28.3-6.9c9.7-1.4,19.5-2,29.4-2c9.9,0,19.7,0.7,29.5,2.3c-9.6-2.3-19.5-3.8-29.4-4.6
		c-9.9-0.8-19.9-0.9-29.9-0.2c-9.2,0.6-18.4,2-27.5,4.3c1.7-0.7,3.4-1.3,5.1-2c9.1-3.1,18.6-5.2,28.3-6.5c9.7-1.3,19.5-1.8,29.3-1.7
		c9.8,0.1,19.7,0.8,29.4,2.5c-9.6-2.4-19.4-3.8-29.3-4.7c-9.9-0.8-19.9-1.1-29.8-0.5c-9.5,0.5-19,1.8-28.4,4.1c2-0.8,3.9-1.5,6-2.2
		c9.1-3,18.6-4.9,28.3-6c9.7-1.2,19.5-1.6,29.2-1.5c9.8,0.2,19.6,0.9,29.3,2.6c-9.6-2.4-19.3-3.9-29.2-4.8
		c-9.9-0.9-19.8-1.2-29.7-0.8c-7.1,0.3-14.1,1-21.2,2.3C452.7,235.6,526.6,239,589.7,272.8 M223.3,388.6
		c-14.5-5.4-33.2-10.2-55.6-11.7c-24.5-1.6-53.5,0.8-86.7,10.7c11.4-6.5,24.3-10.8,37.4-13.6c8.3-1.7,16.8-2.9,25.3-3.4
		c8.5-0.5,17.1-0.5,25.7,0.3c-8.5-1.6-17.1-2.4-25.8-2.6c-8.7-0.2-17.4,0.2-26,1.2c-4,0.5-8,1.1-11.9,1.9c6.2-2.2,12.5-3.9,18.9-5.3
		c8.3-1.8,16.8-2.9,25.4-3.5c8.6-0.5,17.2-0.5,25.8,0.4c-8.5-1.7-17.1-2.5-25.8-2.7c-8.7-0.2-17.4,0.2-26.1,1.3
		c-4,0.5-8,1.1-11.9,1.9c6.2-2.2,12.5-3.9,18.9-5.3c8.4-1.8,16.9-3,25.5-3.5c8.6-0.5,17.2-0.5,25.9,0.5c-8.5-1.8-17.2-2.6-25.9-2.8
		c-8.7-0.2-17.5,0.2-26.2,1.3c-4,0.5-8,1.1-11.9,1.9c6.2-2.2,12.5-3.9,18.9-5.3c8.4-1.8,16.9-3,25.6-3.6c8.6-0.5,17.3-0.5,25.9,0.6
		c-8.5-1.9-17.2-2.7-26-2.9c-8.7-0.2-17.5,0.3-26.3,1.4c-4,0.5-8,1.2-11.9,1.9c6.2-2.2,12.5-3.9,18.9-5.3c8.4-1.8,17-3,25.6-3.6
		c8.6-0.5,17.4-0.5,26,0.7c-8.5-2-17.3-2.8-26-3c-8.8-0.2-17.6,0.3-26.3,1.4c-4,0.5-7.9,1.2-11.9,2c6.2-2.2,12.5-3.9,18.9-5.4
		c8.4-1.8,17-3.1,25.7-3.7c8.7-0.5,17.4-0.5,26.1,0.8c-8.5-2.1-17.3-2.9-26.1-3.1c-8.8-0.2-17.6,0.3-26.4,1.5c-4,0.5-7.9,1.2-11.9,2
		c6.2-2.2,12.5-4,18.9-5.4c8.5-1.9,17.1-3.1,25.8-3.7c8.7-0.5,17.5-0.5,26.1,0.9c-8.5-2.2-17.4-3-26.2-3.2
		c-8.8-0.2-17.7,0.4-26.5,1.5c-4,0.5-7.9,1.2-11.9,2c6.2-2.2,12.5-4,18.9-5.4c8.5-1.9,17.2-3.2,25.9-3.8c8.7-0.6,17.5-0.6,26.2,1
		c-8.5-2.3-17.4-3.1-26.3-3.3c-8.9-0.1-17.8,0.4-26.6,1.6c-4,0.5-7.9,1.2-11.9,2c6.2-2.2,12.5-4,18.9-5.4c8.5-1.9,17.2-3.2,26-3.8
		c8.7-0.6,17.6-0.6,26.3,1.1c-8.5-2.4-17.5-3.2-26.3-3.4c-8.9-0.1-17.8,0.4-26.7,1.6c-4,0.5-7.9,1.2-11.9,2c6.2-2.2,12.5-4,18.9-5.4
		c8.5-1.9,17.3-3.2,26-3.8c8.8-0.6,17.7-0.6,26.3,1.2c-8.5-2.5-17.5-3.3-26.4-3.4c-8.9-0.1-17.9,0.4-26.8,1.7c-4,0.5-7.9,1.2-11.9,2
		c6.2-2.2,12.5-4,18.9-5.4c8.6-1.9,17.3-3.3,26.1-3.9c8.8-0.6,17.7-0.6,26.4,1.3c-8.5-2.7-17.6-3.4-26.5-3.5
		c-9-0.1-17.9,0.5-26.8,1.7c-4,0.6-7.9,1.2-11.9,2.1c6.2-2.2,12.5-4,18.9-5.5c8.6-2,17.4-3.3,26.2-3.9c8.8-0.6,17.8-0.7,26.5,1.4
		c-8.5-2.8-17.6-3.5-26.5-3.6c-9-0.1-18,0.5-26.9,1.8c-4,0.6-7.9,1.3-11.8,2.1c6.2-2.2,12.5-4,18.9-5.5c8.6-2,17.4-3.3,26.3-4
		c8.8-0.6,17.8-0.7,26.5,1.5c-8.5-2.9-17.6-3.6-26.6-3.7c-9-0.1-18.1,0.5-27,1.8c-4,0.6-7.9,1.3-11.8,2.1c6.2-2.2,12.5-4,18.9-5.5
		c8.6-2,17.5-3.3,26.4-4c8.9-0.6,17.9-0.7,26.6,1.6c-8.5-3-17.7-3.7-26.7-3.8c-9-0.1-18.1,0.5-27.1,1.9c-4,0.6-7.9,1.3-11.8,2.1
		c6.2-2.2,12.5-4,18.9-5.5c8.7-2,17.5-3.4,26.4-4.1c8.9-0.6,18-0.8,26.7,1.7c-8.5-3.2-17.7-3.8-26.8-3.9c-9.1-0.1-18.2,0.6-27.2,1.9
		c-3.9,0.6-7.9,1.3-11.8,2.1c6.2-2.2,12.5-4,18.9-5.5c8.7-2,17.6-3.4,26.5-4.1c8.9-0.6,18-0.8,26.7,1.7c-8.5-3.3-17.8-3.9-26.8-4
		c-9.1,0-18.2,0.6-27.3,1.9c-3.9,0.6-7.9,1.3-11.8,2.1c6.2-2.2,12.5-4,18.9-5.5c8.7-2,17.6-3.5,26.6-4.2c8.9-0.6,18.1-0.9,26.8,1.8
		c-8.5-3.4-17.8-4-26.9-4.1c-9.1,0-18.3,0.6-27.4,2c-3.9,0.6-7.9,1.3-11.8,2.1c6.2-2.2,12.5-4,18.9-5.5c8.8-2.1,17.7-3.5,26.7-4.2
		c9-0.6,18.2-0.9,26.9,1.9c-8.4-3.6-17.8-4-26.9-4.2c-9.2,0-18.3,0.7-27.4,2c-8.5,1.3-17,3.1-25.3,5.6
		c73.4-30.5,154.3-0.4,174.1,16.4l-95.8,162.5C271.5,415.5,253.4,399.9,223.3,388.6 M165,442.6c60.3-0.7,99.3,2.4,108.6,8.3
		c-21.9-7.6-137.6-4.9-179.5-3.1c-22.4,0.9-30.9,1.6-34.3,2.2l-0.1-1.9C66,446.3,113.9,443.2,165,442.6 M554.6,429.9l-51.3,80.9
		l-0.3,0.5l-0.5-0.1l-102.1-19.2c-17-3.3-34-6.5-51-9.9l-25.4-5.2c-8.2-1.8-16.3-3.4-24.4-5.5c-1.7,6.1-4.4,12.2-9.2,16.7
		c-2.5,2.3-5.6,4.1-9,4.9c-3.3,0.8-6.8,0.8-10.2,0.2c-6.6-1.2-13.1-4.2-17.6-9.4c-4.2-5-6.5-11.4-6.6-17.9l-98.7,2.7l-99.5,2.3
		l99.4-3.5l99.5-3.1l0.8,0l0,0.9c0,6.3,2.2,12.8,6.4,17.6c4.1,4.9,10.3,7.7,16.6,8.8c3.1,0.6,6.4,0.5,9.4-0.2c3-0.8,5.8-2.3,8.1-4.5
		c4.6-4.4,7.2-10.5,8.9-16.8l0.2-0.9l1,0.3c8.3,2.2,16.8,3.8,25.2,5.6l25.4,5.1l50.9,10l101.4,19.5l51.3-80.2l51.9-80.4L554.6,429.9
		z M596.6,278.3l-97.4,164.2l-1.3-1.2l98.2-166.6l0.9-1.5l1.9,1.2L596.6,278.3z M597.5,279.9l1.9,1.2l-1.1,1.7l-0.9,1.5l-99.7,165
		l0.3-1.8L597,280.9L597.5,279.9z M598,286.7l1.9,1.2l-1.7,2.7L497.2,455.9l-0.3-1.1l101-167.8L598,286.7z M599.6,300.5l1.3,0.8
		l-1,1.6L496,468.8l-0.3-1.5L599,300.2L599.6,300.5z M600.6,307.6l0.9,0.5l-0.6,1L495.4,475.4l0-1.4l104.2-167L600.6,307.6z
		 M600.1,313.6l1.5,1l0.4,0.3l-0.3,0.5L494.8,481.8l-0.4-1.4l0-0.1l0,0L600.1,313.6z"/>
	<path class="st1" d="M244.7,325.2L244.7,325.2L244.7,325.2z"/>
</g>
</svg>
