<?xml version="1.0" encoding="utf-8"?>
<!-- Generator: Adobe Illustrator 26.0.2, SVG Export Plug-In . SVG Version: 6.00 Build 0)  -->
<svg version="1.1" id="Layer_1" xmlns="http://www.w3.org/2000/svg" xmlns:xlink="http://www.w3.org/1999/xlink" x="0px" y="0px"
	 viewBox="0 0 400 100" style="enable-background:new 0 0 400 100;" xml:space="preserve">
<style type="text/css">
	.st0{fill:#A9714B;}
	.st1{fill:#053C5E;}
</style>
<g>
	<g>
		<path class="st0" d="M9.2,52.4v7.9H7.3V46.5h1.8l0.1,2.2c0.5-0.9,1.1-1.5,1.9-1.9c0.8-0.4,1.6-0.6,2.5-0.6c1,0,1.9,0.3,2.5,0.8
			c0.6,0.5,1.1,1.2,1.3,2.1c0.5-1,1.1-1.7,1.9-2.1c0.8-0.5,1.7-0.7,2.7-0.7c0.7,0,1.4,0.1,1.9,0.4c0.5,0.3,1,0.6,1.3,1
			c0.3,0.4,0.5,0.9,0.7,1.5c0.2,0.6,0.3,1.2,0.3,1.7c0,0.5,0.1,1.1,0.1,1.8v7.8h-1.9v-8.2c0-0.7,0-1.3-0.1-1.8
			c-0.1-0.5-0.2-1-0.4-1.4c-0.2-0.4-0.5-0.7-0.8-0.9c-0.4-0.2-0.8-0.3-1.3-0.3c-0.8,0-1.5,0.2-2.1,0.7c-0.6,0.5-1.1,1.1-1.4,1.8
			s-0.5,1.5-0.5,2.2v8h-1.9v-8.2c0-1.4-0.2-2.6-0.6-3.3c-0.4-0.8-1.1-1.2-2.1-1.2c-0.8,0-1.5,0.2-2.1,0.7c-0.6,0.5-1.1,1.1-1.4,1.8
			C9.4,50.9,9.2,51.6,9.2,52.4z"/>
		<path class="st0" d="M33.8,59.4l-5.3-12.9h2l0.8,2c0.5,1.3,1.1,2.9,1.8,4.7c0.7,1.8,1.3,3.3,1.7,4.2c0.8-2,2.2-5.7,4.3-10.9h1.9
			c-0.6,1.6-1.5,3.8-2.7,6.7c-1.2,2.9-1.9,4.8-2.3,5.8c-0.3,0.8-0.6,1.5-0.8,2c-0.2,0.5-0.5,1-0.9,1.5c-0.3,0.5-0.7,0.9-1,1.2
			c-0.3,0.3-0.8,0.5-1.2,0.7c-0.5,0.2-1,0.3-1.6,0.3c-0.5,0-0.9-0.1-1.4-0.2l0.2-1.5c0.4,0.1,0.8,0.1,1.2,0.1c1.5,0,2.6-0.9,3.2-2.7
			L33.8,59.4z"/>
	</g>
	<g>
		<path class="st1" d="M82,61.2h-9.2v-3.7c-0.8,0.7-1.7,1.2-2.6,1.8c-0.9,0.5-1.9,1-2.9,1.4c-1,0.4-2.1,0.7-3.3,0.9
			c-1.2,0.2-2.4,0.3-3.8,0.3c-1.8,0-3.6-0.3-5.3-0.8c-1.7-0.5-3.3-1.4-4.6-2.5c-1.3-1.1-2.4-2.5-3.2-4.2c-0.8-1.7-1.2-3.7-1.2-6
			c0-2.2,0.4-4.1,1.2-5.8c0.8-1.6,1.9-3,3.3-4.1c1.4-1.1,3-1.9,4.9-2.4c1.9-0.5,3.9-0.8,6-0.8c1.1,0,2.1,0.1,3.2,0.3
			c1,0.2,2,0.4,3,0.7c1,0.3,1.9,0.6,2.8,1c0.9,0.4,1.8,0.8,2.6,1.3V28h-6v-3H76v33.3H82V61.2z M60.9,59.1c1.3,0,2.5-0.2,3.7-0.5
			c1.2-0.3,2.2-0.7,3.2-1.2c1-0.5,1.9-1,2.7-1.6c0.8-0.6,1.6-1.2,2.2-1.8V42c-0.7-0.5-1.4-1-2.2-1.4c-0.8-0.4-1.7-0.8-2.7-1.2
			c-1-0.4-2-0.6-3.1-0.8c-1.1-0.2-2.3-0.3-3.5-0.3c-1.8,0-3.5,0.2-5,0.7c-1.5,0.5-2.8,1.1-3.8,2c-1.1,0.9-1.9,1.9-2.5,3.2
			c-0.6,1.3-0.9,2.7-0.9,4.4c0,3.4,1,6,3,7.9C54.1,58.2,57,59.1,60.9,59.1z"/>
		<path class="st1" d="M83.9,36.1h9.2v22.1h6v3H83.9v-3h5.9V39.1h-5.9V36.1z M88.2,29.1c0-0.4,0.1-0.8,0.2-1.1
			c0.1-0.4,0.4-0.7,0.6-0.9c0.3-0.3,0.6-0.5,0.9-0.6c0.4-0.2,0.7-0.2,1.1-0.2c0.4,0,0.8,0.1,1.1,0.2c0.4,0.2,0.7,0.4,0.9,0.6
			c0.3,0.3,0.5,0.6,0.6,0.9c0.2,0.4,0.2,0.7,0.2,1.1c0,0.4-0.1,0.8-0.2,1.1c-0.2,0.4-0.4,0.7-0.6,0.9c-0.3,0.3-0.6,0.5-0.9,0.6
			c-0.4,0.1-0.7,0.2-1.1,0.2c-0.4,0-0.8-0.1-1.1-0.2c-0.4-0.1-0.7-0.4-0.9-0.6c-0.3-0.3-0.5-0.6-0.6-0.9
			C88.3,29.9,88.2,29.5,88.2,29.1z"/>
		<path class="st1" d="M129.3,45.8v-1.2c0-1.1-0.3-2-1-2.8c-0.7-0.8-1.5-1.4-2.6-2c-1-0.5-2.2-0.9-3.5-1.1c-1.3-0.2-2.5-0.4-3.6-0.4
			c-2,0-3.7,0.2-5.3,0.7c-1.6,0.5-2.9,1.2-4,2c-1.1,0.9-1.9,2-2.5,3.2c-0.6,1.3-0.9,2.7-0.9,4.3c0,1.6,0.3,3.1,0.8,4.3
			c0.6,1.3,1.4,2.4,2.4,3.3c1.1,0.9,2.4,1.6,3.9,2.1c1.5,0.5,3.3,0.7,5.2,0.7c1.7,0,3.1-0.2,4.3-0.5c1.2-0.3,2.3-0.7,3.2-1.2
			c0.9-0.5,1.6-1,2.1-1.6c0.5-0.6,0.9-1.2,1.2-1.8h3.4c-1,2.6-2.7,4.6-5.1,5.9c-2.4,1.3-5.5,2-9.2,2c-2.3,0-4.3-0.3-6.3-0.9
			c-1.9-0.6-3.6-1.4-5-2.5c-1.4-1.1-2.5-2.5-3.3-4.1c-0.8-1.6-1.2-3.5-1.2-5.7c0-2.1,0.4-4,1.2-5.7c0.8-1.7,2-3,3.4-4.2
			c1.4-1.1,3.1-2,5-2.6c1.9-0.6,4-0.9,6.2-0.9c1.3,0,2.5,0.1,3.6,0.3c1.1,0.2,2.1,0.4,3,0.7c0.9,0.3,1.7,0.7,2.5,1
			c0.7,0.4,1.3,0.8,1.8,1.2V36h2.9v9.9H129.3z"/>
		<path class="st1" d="M135.1,36.1h6.8v-8.7h3.3v8.7h17.7v3h-17.7v14.6c0,1,0.2,1.9,0.6,2.6c0.4,0.7,0.9,1.2,1.6,1.6
			c0.7,0.4,1.5,0.7,2.5,0.8c1,0.2,2,0.2,3.2,0.2c1.1,0,2.2-0.1,3.1-0.2c0.9-0.1,1.8-0.3,2.6-0.5c0.8-0.2,1.5-0.5,2.1-0.8
			c0.6-0.3,1.2-0.6,1.8-0.9l1.6,2.6c-0.7,0.4-1.4,0.7-2.2,1c-0.8,0.3-1.7,0.6-2.7,0.8c-0.9,0.2-2,0.4-3,0.6
			c-1.1,0.1-2.2,0.2-3.3,0.2c-1.7,0-3.2-0.1-4.6-0.4c-1.4-0.3-2.5-0.7-3.5-1.4c-1-0.6-1.7-1.5-2.2-2.5c-0.5-1-0.8-2.3-0.8-3.8V39.1
			h-6.8V36.1z"/>
		<path class="st1" d="M167,36.1h9.2v22.1h6v3H167v-3h5.9V39.1H167V36.1z M171.3,29.1c0-0.4,0.1-0.8,0.2-1.1
			c0.1-0.4,0.4-0.7,0.6-0.9c0.3-0.3,0.6-0.5,0.9-0.6c0.4-0.2,0.7-0.2,1.1-0.2c0.4,0,0.8,0.1,1.1,0.2c0.4,0.2,0.7,0.4,0.9,0.6
			c0.3,0.3,0.5,0.6,0.6,0.9c0.2,0.4,0.2,0.7,0.2,1.1c0,0.4-0.1,0.8-0.2,1.1c-0.2,0.4-0.4,0.7-0.6,0.9c-0.3,0.3-0.6,0.5-0.9,0.6
			c-0.4,0.1-0.7,0.2-1.1,0.2c-0.4,0-0.8-0.1-1.1-0.2c-0.4-0.1-0.7-0.4-0.9-0.6c-0.3-0.3-0.5-0.6-0.6-0.9
			C171.4,29.9,171.3,29.5,171.3,29.1z"/>
		<path class="st1" d="M217.9,48.7c0,2.3-0.4,4.3-1.2,5.9c-0.8,1.7-2,3-3.4,4.1c-1.4,1.1-3.1,1.9-5.1,2.4c-2,0.5-4.1,0.8-6.3,0.8
			c-2.3,0-4.4-0.3-6.4-0.8c-2-0.5-3.7-1.3-5.1-2.4c-1.5-1.1-2.6-2.5-3.4-4.1c-0.8-1.7-1.2-3.6-1.2-5.9c0-2.3,0.4-4.3,1.3-5.9
			c0.8-1.7,2-3.1,3.4-4.1c1.5-1.1,3.2-1.9,5.1-2.4c2-0.5,4.1-0.8,6.3-0.8c2.3,0,4.4,0.3,6.3,0.8c2,0.5,3.7,1.3,5.1,2.4
			c1.4,1.1,2.6,2.5,3.4,4.1C217.5,44.4,217.9,46.4,217.9,48.7z M214.7,48.7c0-3.4-1.1-6-3.2-7.8c-2.2-1.8-5.4-2.7-9.6-2.7
			c-4.3,0-7.5,0.9-9.7,2.7c-2.2,1.8-3.3,4.4-3.3,7.8c0,3.4,1.1,6,3.3,7.8c2.2,1.8,5.4,2.7,9.7,2.7c4.3,0,7.5-0.9,9.6-2.7
			C213.6,54.7,214.7,52.1,214.7,48.7z"/>
		<path class="st1" d="M221.7,36.1h9.2v4.7c0.8-0.8,1.7-1.5,2.8-2.2c1-0.7,2.1-1.3,3.3-1.8c1.2-0.5,2.4-0.9,3.7-1.2
			c1.3-0.3,2.6-0.4,4-0.4c1.6,0,3.1,0.2,4.3,0.6c1.2,0.4,2.2,1,3,1.8c0.8,0.8,1.4,1.7,1.8,2.8c0.4,1.1,0.6,2.3,0.6,3.6v14.2h6v3
			h-15.2v-3h5.9V45c0-1.3-0.2-2.4-0.5-3.3c-0.3-0.9-0.8-1.6-1.5-2.1c-0.6-0.5-1.4-0.9-2.3-1.1c-0.9-0.2-1.9-0.3-3-0.3
			c-1.3,0-2.6,0.2-3.9,0.5c-1.3,0.4-2.5,0.8-3.6,1.3c-1.1,0.5-2.1,1.1-3.1,1.8c-0.9,0.6-1.7,1.3-2.4,1.8v14.6h6v3h-15.2v-3h5.9V39.1
			h-5.9V36.1z"/>
		<path class="st1" d="M287.9,58.3c-0.8,0.4-1.7,0.8-2.7,1.3c-1,0.4-2,0.8-3.2,1.2c-1.1,0.4-2.4,0.6-3.6,0.9c-1.3,0.2-2.6,0.3-4,0.3
			c-1.6,0-3-0.2-4.3-0.5c-1.3-0.3-2.4-0.8-3.3-1.4c-0.9-0.6-1.6-1.4-2.1-2.3c-0.5-0.9-0.7-2-0.7-3.2c0-1.9,0.6-3.4,1.8-4.6
			c1.2-1.2,2.9-2.1,5-2.9c2.1-0.7,4.7-1.2,7.6-1.6c2.9-0.3,6.1-0.6,9.5-0.7v-1.2c0-0.9-0.3-1.7-0.8-2.4c-0.5-0.7-1.2-1.2-2.1-1.6
			c-0.9-0.4-1.9-0.7-3-0.9c-1.1-0.2-2.3-0.3-3.6-0.3c-1.5,0-2.8,0.1-3.9,0.3c-1.1,0.2-2,0.5-2.8,0.8c-0.8,0.4-1.4,0.8-1.8,1.3
			c-0.4,0.5-0.8,1.1-1,1.8l-3.4-0.8c0.6-2,1.9-3.5,4-4.6c2.1-1.1,5-1.6,8.7-1.6c1.8,0,3.6,0.2,5.1,0.5c1.6,0.3,2.9,0.8,4,1.5
			c1.1,0.7,2,1.6,2.7,2.7c0.6,1.1,1,2.4,1,4v14.2h6.3v3h-9.6V58.3z M287.9,47.5c-3.9,0.1-7.1,0.4-9.7,0.8c-2.6,0.4-4.8,0.8-6.4,1.4
			c-1.6,0.6-2.8,1.2-3.5,2c-0.7,0.8-1.1,1.7-1.1,2.7c0,1.5,0.7,2.7,2,3.5c1.3,0.8,3.3,1.2,5.9,1.2c1.1,0,2.3-0.1,3.5-0.4
			c1.3-0.2,2.5-0.6,3.7-0.9c1.2-0.4,2.3-0.8,3.2-1.3c1-0.5,1.8-0.9,2.3-1.4V47.5z"/>
		<path class="st1" d="M299.2,36.1h9.2v5.3c0.7-0.8,1.5-1.6,2.3-2.4c0.8-0.7,1.7-1.4,2.7-1.9c1-0.5,2-1,3.1-1.3
			c1.1-0.3,2.3-0.5,3.5-0.5c0.6,0,1.2,0,1.8,0.1c0.5,0.1,1,0.2,1.5,0.3c0.4,0.1,0.8,0.2,1.1,0.4c0.3,0.1,0.5,0.2,0.6,0.2l-1.2,3
			c-0.4-0.2-1-0.5-1.7-0.7c-0.7-0.2-1.6-0.4-2.6-0.4c-1.3,0-2.6,0.2-3.7,0.6c-1.1,0.4-2.1,0.9-3,1.5c-0.9,0.6-1.7,1.3-2.4,2
			c-0.7,0.7-1.3,1.4-1.8,2.1v13.5h6.5v3h-15.7v-3h5.9V39.1h-5.9V36.1z"/>
		<path class="st1" d="M361.9,39.1h-5l-9.8,19.2l-0.6,1.1c-0.7,1.3-1.3,2.5-1.8,3.6c-0.6,1.1-1.2,2.2-1.8,3.1
			c-0.6,0.9-1.2,1.8-1.9,2.5c-0.7,0.7-1.4,1.4-2.2,1.9c-0.8,0.5-1.7,0.9-2.8,1.2c-1,0.3-2.2,0.4-3.5,0.4c-1.1,0-2.2-0.1-3.3-0.4
			c-1.2-0.3-2.2-0.7-3.1-1.3l1.5-2.8c0.2,0.2,0.5,0.3,0.8,0.5c0.3,0.2,0.7,0.4,1.1,0.5c0.4,0.2,0.9,0.3,1.4,0.4
			c0.5,0.1,1.1,0.2,1.7,0.2c1.2,0,2.3-0.2,3.3-0.5c0.9-0.4,1.8-0.9,2.5-1.5c0.7-0.7,1.4-1.5,2-2.4c0.6-1,1.2-2.1,1.8-3.3L331,39.1
			h-4.9v-3h13v3h-4.3L344,58l9.3-18.9h-4.4v-3h13V39.1z"/>
	</g>
	<g>
		<path class="st0" d="M370.4,58.3c-1.5,1.3-3.2,1.9-4.9,1.9c-1.2,0-2.1-0.3-2.9-0.9c-0.8-0.6-1.2-1.5-1.2-2.7
			c0-0.5,0.1-0.9,0.2-1.3s0.3-0.7,0.5-1c0.2-0.3,0.5-0.5,0.9-0.8c0.4-0.2,0.8-0.4,1.1-0.5c0.3-0.1,0.8-0.3,1.4-0.4
			c0.6-0.1,1.1-0.2,1.5-0.3c0.4-0.1,1-0.2,1.8-0.3l1.3-0.2v-0.6c0-1.5-0.2-2.5-0.7-3.1c-0.5-0.6-1.3-0.8-2.5-0.8
			c-0.8,0-1.5,0.1-2.2,0.4c-0.7,0.3-1.2,0.7-1.7,1.3c0,0-0.4-0.4-1.1-1.1c1.1-1.4,2.8-2.1,5.1-2.1c3.4,0,5.1,1.7,5.1,5v9.1h-1.6
			L370.4,58.3z M370.3,53.1l-1.3,0.2c-0.7,0.1-1.3,0.2-1.7,0.3c-0.4,0.1-0.9,0.2-1.4,0.3s-0.9,0.3-1.1,0.4c-0.3,0.1-0.5,0.3-0.8,0.5
			c-0.2,0.2-0.4,0.4-0.5,0.7c-0.1,0.3-0.1,0.5-0.1,0.9c0,1.7,0.9,2.6,2.6,2.6c1.4,0,2.9-0.7,4.5-2V53.1z"/>
		<path class="st0" d="M377.5,48.3c0.9-1.7,2.3-2.5,4.2-2.5c0.9,0,1.7,0.2,2.4,0.5c0.7,0.4,1.3,0.9,1.7,1.5c0.4,0.6,0.7,1.4,0.9,2.2
			c0.2,0.8,0.3,1.8,0.3,2.8c0,1.4-0.2,2.6-0.6,3.7c-0.4,1.1-1,1.9-1.8,2.6c-0.8,0.7-1.8,1-2.9,1c-0.9,0-1.8-0.2-2.5-0.6
			s-1.3-1-1.7-1.8v1.8v5h-1.9V46.1h1.6L377.5,48.3z M384.1,48.8c-0.6-1-1.5-1.6-2.6-1.6c-0.7,0-1.2,0.1-1.7,0.3
			c-0.5,0.2-0.9,0.5-1.1,0.8c-0.3,0.3-0.5,0.8-0.7,1.3c-0.2,0.5-0.3,1-0.3,1.5c0,0.5-0.1,1.1-0.1,1.7c0,3.9,1.3,5.9,3.9,5.9
			c1.1,0,2-0.5,2.6-1.6c0.6-1,1-2.5,1-4.4C385.1,51.2,384.8,49.8,384.1,48.8z"/>
		<path class="st0" d="M390.1,43.2v-2.4h1.9v2.4H390.1z M390.1,59.9V46.1h1.9v13.8H390.1z"/>
	</g>
</g>
</svg>
